<svg width="34" height="34" fill="none" xmlns="http://www.w3.org/2000/svg"><path d="M10.06 16.94a1.5 1.5 0 0 0-2.12 2.12l2.12-2.12Zm2.88 7.12L14 25.122 16.121 23l-1.06-1.06-2.122 2.12Zm1-1.12a1.5 1.5 0 0 0 2.122 2.122L13.94 22.94Zm12.62-8.38a1.5 1.5 0 0 0-2.12-2.12l2.12 2.12ZM30.5 17c0 7.456-6.044 13.5-13.5 13.5v3c9.113 0 16.5-7.387 16.5-16.5h-3ZM17 30.5C9.544 30.5 3.5 24.456 3.5 17h-3c0 9.113 7.387 16.5 16.5 16.5v-3ZM3.5 17C3.5 9.544 9.544 3.5 17 3.5v-3C7.887.5.5 7.887.5 17h3ZM17 3.5c7.456 0 13.5 6.044 13.5 13.5h3C33.5 7.887 26.113.5 17 .5v3ZM7.94 19.06l5 5 2.12-2.12-5-5-2.12 2.12Zm8.122 6.002L26.56 14.56l-2.122-2.121-10.499 10.5 2.122 2.122Z" fill="#fff"/></svg>