<svg width="146" height="140" fill="none" xmlns="http://www.w3.org/2000/svg"><path fill-rule="evenodd" clip-rule="evenodd" d="M10.837 101.983c2.536.164 4.989.231 6.283-1.038 9.96-5.768 14.584-7.623-1.861-12.752 3.112-.365 20.516 6.288 26.03-.967 4.531-3.498-17.861-8.12-19.012-11.623 4.232 2.881 23.331 12.225 26.977 3.868-.638-2.95-3.151-8.255-11.578-11.293 2.922.707 7.546-.062 9.417-2.19-.681-2.774-11.435-9.882-12.447-19.131 3.443 5.518 7.977 14.628 13.403 16.343 0 0 1.716-4.48 7.593-6.271-5.42-.003-11.014-3.47-11.74-6.508 3.906 6.892 17.453 3.36 23.092 9.123 0 0-1.03-3.916 2.764-9.136.406-1.234-2.078-3.406-.91-3.841.533.725.671 2.58 2.27 2.26 3.645-1.588 6.892-6.733 4.505-11.255 1.657 1.03 1.795 5.153 2.092 7.508 2.2.08 6.113-.43 10.094 3.927.789-.664.52-2.088 1.288-2.782.778 2.858.77 9.204 4.55 9.131 3-.053 6.833-7.255 7.471-10.064-.139 6.884 3.368 6.083 4.438 6.269 2.83-.31 5.804-10.15 7.167-10.169-.463 1.24-.606 5.07-.331 7.153 3.01.71 10.765-3.28 12.24-5.118-.192 1.357-.861 2.153-.591 4.035 2.616.645 18.202-7.481 21.959-15.758-4.195-2.19-7.454-4.54-10.654-5.599-1.854 1.81-1.995 9.433-4.29 8.774 1.217-1.685 3.911-8.129 1.509-10.236-10.337-7.795-5.142 5.86-6.154 7.252.058-2.513-4.668-16.389-9.043-15.133-.864 1.169-2.589-7.019-5.502 10.808.253-2.905 3.662-14.65-12.298-19.504-.801 4.451 4.716 17.956 3.399 21.071-.577-5.811-4.614-19.558-7.483-22.928C89.384 3.623 78.842-1.286 74.1.663c-5.353 1.634 8.269 14.846 4.478 20.496.854-7.897-7.649-16.087-13.382-16.246-11.84 6.69-2.285 18.996-4.01 24.786-1.03-7.104-4.456-8.83-3.791-17.063-3.081 2.247-3.356 6.47-6.468 9.768-1.582.462-2.485-.42-4.072.046-2.852 3.204 2.378 10.2 1.283 13.02-1.833-4.55-1.896-11.045-6.558-11.835-3.762-2.798-11.858-.462-17.796 3.855-6.833 2.05-13.481 22.332-13.14 25.275.438 3.74 6.283 4.145 6.677 7.707-2.412-1.382-3.183-4.516-7.225-4.18-1.497 3.204-2.266 5.803-2.59 10.351 4.191 3.092 9.243 5.793 10.574 10.046-3.687-1.554-5.877-7.702-10.853-5.995C.914 90.27 8.499 86.53 9.506 89.244c-2.163.75-4.246-1.475-5.217-.1-4.855 10.027.693 9.836 1.348 11.594l-3.65-.072C.079 102.518-.32 108.862.222 111.622c3.982-2.083 12.886-4.263 10.615-9.639Z" fill="url(#a)" fill-opacity=".65"/><path fill-rule="evenodd" clip-rule="evenodd" d="M124.807 50.072c-4.657 1.174-18.842 2.405-22.472 6.854 4.083 7.17 20.26 8.344 24.39 15.454-6.149-4.137-18.988-10.295-27.337-12.462-9.788-2.54-6.953 3.607-10.128 12.244 1.474 3.355 5.993 12.316 6.378 15.22-2.485-2.965-4.573-16.758-8.66-9.32-6.423 11.688 3.56 14.061 7.879 24.948-2.809-4.073-8.174-12.153-11.659-17.134l-2.355 4.519c-4.157-1.161-5.868-.796-5.868-.796 2.429 6.465 10.158 20.16 12.38 24.251-7.471-8.09-10.508-15.84-14.55-24.59-3.251.143-6.31-1.623-9.454-2.043-.321 7.519 2.728 12.3 2.767 17.556-2.521-7.997-4.006-25.469-18.618-19.832-4.106 9.153 2.034 27.192 2.158 35.127-2.611-8.553-2.424-20.945-5.979-28.488-4.711-.303-12.087-.648-10.654 2.723-9.307 2.645-33.527 18.488-29.403 22.856 7.417 7.879 23.595 17.849 33.752 20.136.467-2.97 1.706-8.171 2.755-9.892 1.087 4.699 2.543 10.715 6.94 11.876 1.2-1.564-.458-5.419-.224-7.696 3.86 5.078 14.192 10.951 21.446 7.258.752-2.908-2.132-7.25-.528-9.174.954 8.042 17.898 8.83 19.285 1.516.596-3.156-2.543-5.253-2.48-7.562 2.368 2.866 3.475 6.801 7.712 6.511 9.059-.635 2.893-14.276 1.394-19.642 2.25 4.782 4.828 11.882 8.074 15.599 2.385-.656 3.667-4.621 2.232-7.889 7.935 6.061 8.758 1.344 5.677-10.656.703 2.296 3.772 7.954 5.723 8.919 7.157-3.395-2.959-16.397-4.241-18.942 3.059 2.596 6.677 11.472 11.096 12.609.789-.666.859-5.335 1.48-6.185-.579-4.11-2.268-7.682-4.376-10.921 2.977 3.879 6.128 7.349 9.574 9.271 2.754-3.75-2.422-14.486-3.984-17.236 2.378 1.051 6.434 8.182 9.668 8.317 3.071-1.672-1.282-10.36-3.307-13.392 1.246.562 5.161 4.954 7.444 4.411.81-4.064-4.108-9.142-5.208-12.467 1.407.39 5.831 5.137 7.658 5.067 2.042-8.822 5.111-18.988 4.629-39.396-3.49.062-17.467 11.58-21.006 12.473ZM107.323 77.22c2.823 2.841 5.663 7.018 8.649 11.225-3.273-4.056-6.739-7.64-8.649-11.225Z" fill="url(#b)" fill-opacity=".65"/><defs><linearGradient id="a" x1="73" y1=".217" x2="73" y2="111.622" gradientUnits="userSpaceOnUse"><stop stop-color="#8A2387"/><stop offset=".519" stop-color="#E94057"/><stop offset="1" stop-color="#F27121"/></linearGradient><linearGradient id="b" x1="74.509" y1="37.599" x2="74.509" y2="140" gradientUnits="userSpaceOnUse"><stop stop-color="#8A2387"/><stop offset=".519" stop-color="#E94057"/><stop offset="1" stop-color="#F27121"/></linearGradient></defs></svg>