<svg width="92" height="114" fill="none" xmlns="http://www.w3.org/2000/svg"><path d="M38.796.298C34.57 1.634 32.194 6 33.316 10.41c.528 2.138 1.585 3.898 3.5 5.969l1.738 1.849h-3.741c-2.069 0-4.005.089-4.313.222-.308.112-.947.58-1.43 1.025-1.475 1.336-1.563 1.893-1.563 10.602v7.528H25.24c-1.98 0-2.42.067-3.366.557-1.189.601-1.849 1.336-2.245 2.539-.176.534-.264 3.274-.264 8.953v8.174l-2.839.09c-2.75.066-2.882.089-3.784.735-.507.356-1.167 1.113-1.453 1.648l-.506.98v19.978H7.548c-2.684 0-3.41.09-4.137.423C.683 82.93-.594 85.781.265 88.698c.176.557.704 1.359 1.386 2.072 1.87 1.937.836 1.848 21.301 1.848h17.824l-.132 1.76c-.242 3.72-2.508 6.593-5.985 7.573-.484.133-2.75.445-5.017.668-3.741.378-4.291.49-5.546 1.113-2.508 1.248-4.18 3.742-4.423 6.526-.132 1.626.286 2.539 1.497 3.297.704.445 1.166.445 24.821.445 23.656 0 24.118 0 24.822-.445 1.21-.758 1.629-1.671 1.497-3.297-.287-3.363-2.73-6.281-5.964-7.149-.484-.112-2.596-.379-4.687-.579-2.09-.201-4.225-.513-4.731-.691-3.367-1.203-5.413-3.92-5.611-7.483l-.11-1.738H69.03c20.465 0 19.43.09 21.3-1.848 2.817-2.94 1.96-7.373-1.76-9.088-.726-.334-1.452-.423-4.115-.423H81.2V61.281l-.506-.98c-.287-.535-.947-1.292-1.453-1.648-.902-.646-1.034-.669-3.785-.736l-2.838-.089V41.213L72 40.033c-.484-.958-.836-1.315-1.782-1.805-1.056-.556-1.386-.623-3.455-.623h-2.288v-7.528c0-8.709-.088-9.266-1.563-10.602-.484-.446-1.122-.913-1.43-1.025-.308-.133-2.244-.222-4.313-.222h-3.74l1.737-1.849c.947-1.025 2.047-2.472 2.421-3.207 2.62-4.945 1.277-10.134-3.212-12.384-1.32-.646-1.628-.713-3.432-.713-2.025.023-2.421.134-4.401 1.337-.66.378-.683.378-1.519-.2-1.716-1.16-4.269-1.539-6.227-.915Zm3.587 3.23c.308.133 1.034.623 1.584 1.113.792.713 1.166.891 1.848.891.947 0 2.047-.468 2.223-.958.066-.178.572-.556 1.144-.824 2.003-.98 4.445-.2 5.765 1.827.55.802.617 1.136.595 2.606 0 1.403-.11 1.915-.66 3.029-.859 1.781-3.433 4.387-5.81 5.857-1.65 1.025-1.98 1.159-3.08 1.159s-1.431-.134-3.081-1.159c-2.399-1.492-4.995-4.098-5.81-5.813-1.188-2.583-.968-4.877.638-6.503 1.255-1.292 3.17-1.782 4.644-1.225Zm18.44 18.53c.286.401.352 1.248.352 4.678 0 2.316-.044 4.187-.132 4.187-.066 0-.704-.4-1.43-.913-3.697-2.54-6.404-2.606-9.969-.267-2.86 1.87-4.049 1.87-6.777.066-3.543-2.36-6.338-2.316-10.299.112-.704.423-1.386.78-1.518.78-.176 0-.242-1.226-.242-4.077 0-3.318.066-4.165.352-4.566l.33-.49h29.003l.33.49Zm-19.65 10.647c1.958 1.314 3.278 1.782 5.038 1.782 1.76 0 2.971-.424 4.93-1.738 2.662-1.781 3.983-1.781 6.535-.022.77.512 1.827 1.114 2.377 1.337l1.012.378.132 3.163H41.788l-.528.557c-.704.69-.704 1.536 0 2.227l.528.557h13.358c12.124 0 13.4.044 13.775.378.352.312.396.735.396 3.542v3.162l-.66.156c-.352.067-1.255.557-2.025 1.047-3.455 2.272-4.665 2.294-7.856.09-1.606-1.092-3.256-1.56-5.06-1.404-1.695.156-2.553.49-4.182 1.604-2.794 1.96-4.049 1.937-6.997-.045-1.915-1.314-2.575-1.514-4.798-1.514-2.134 0-2.464.133-5.589 2.138-1.056.668-1.364.757-2.662.757-1.365 0-1.585-.067-3.323-1.136-1.012-.623-2.223-1.27-2.663-1.425l-.836-.268V44.91c0-2.628.066-3.23.374-3.563.33-.379.814-.401 6.271-.401h5.92l.528-.557c.308-.29.55-.802.55-1.114 0-.312-.242-.824-.55-1.113-.484-.513-.682-.557-2.75-.557h-2.201V34.53l.946-.378c.506-.2 1.628-.802 2.465-1.337 2.926-1.826 4.313-1.848 6.953-.111Zm-.023 19.823c3.631 2.427 6.272 2.405 9.925 0 2.684-1.805 3.85-1.782 6.69.11 1.958 1.315 3.498 1.76 5.412 1.605 1.695-.156 2.663-.513 4.512-1.715.726-.49 1.386-.891 1.474-.891.088 0 .154 1.403.154 3.118v3.118H22.666v-3.118c0-1.715.066-3.118.176-3.118.088 0 .902.467 1.804 1.002 3.631 2.227 6.36 2.25 9.617.067 1.958-1.292 2.618-1.515 3.983-1.404.968.067 1.496.29 2.904 1.226Zm36.397 9.042c.286.29.352 1.025.352 4.477v4.12l-1.078-.78c-2.003-1.47-2.839-1.78-4.864-1.892-2.398-.112-3.256.133-5.545 1.626-2.97 1.937-4.027 1.915-7.196-.179-1.892-1.27-2.596-1.492-4.643-1.492-2.068 0-2.926.29-5.105 1.737-2.728 1.782-4.005 1.782-6.711 0-2.2-1.447-3.037-1.737-5.128-1.737-2.068 0-2.926.29-5.105 1.737-2.75 1.805-4.005 1.805-6.8-.089-2.112-1.425-2.816-1.648-5.149-1.648-1.958 0-3.278.49-5.17 1.893-.573.423-1.101.78-1.19.78-.065 0-.131-1.849-.131-4.098 0-3.43.066-4.165.352-4.455.308-.312 3.477-.356 31.555-.356 28.079 0 31.248.044 31.556.356Zm-54.925 9.533c.33.178 1.254.757 2.068 1.314 1.717 1.18 3.367 1.604 5.282 1.403 1.628-.156 2.552-.557 4.445-1.87 1.474-1.025 1.54-1.048 3.19-1.048 1.695 0 1.717 0 3.521 1.203 3.61 2.406 6.338 2.406 9.947 0 1.804-1.203 1.826-1.203 3.52-1.203 1.65 0 1.717.023 3.191 1.047 2.245 1.56 2.993 1.827 5.15 1.827 2.178.022 3.08-.29 5.215-1.76 1.716-1.18 2.09-1.314 3.806-1.18 1.079.066 1.497.245 2.62 1.046.725.513 1.782 1.136 2.332 1.381l.99.446v7.55H52.13c-17.736 0-25.878.067-26.186.245-1.057.557-.969 2.339.154 2.851.396.178 8.758.245 30.697.245 32.766 0 31.05-.067 31.621 1.225.638 1.403 0 2.806-1.452 3.23-.572.178-13.115.222-41.59.178l-40.797-.067-.639-.735c-1.056-1.203-.77-2.873.617-3.586.33-.156 2.772-.245 7.525-.245 4.776 0 7.218-.089 7.592-.245 1.123-.512 1.21-2.294.154-2.85-.242-.134-1.628-.246-3.08-.246h-2.663v-7.528l.792-.267c.44-.156 1.43-.713 2.223-1.27.792-.534 1.65-1.069 1.914-1.18.748-.312 2.97-.245 3.609.089Zm25.35 22.918c0 3.052 1.144 5.791 3.41 8.063 2.641 2.673 4.094 3.207 10.233 3.809 2.113.2 4.159.49 4.511.646 1.43.579 2.465 1.848 2.86 3.496l.155.624h-46.3l.155-.601c.396-1.671 1.43-2.94 2.86-3.519.375-.156 2.4-.446 4.512-.646 5.831-.557 7.415-1.114 9.88-3.363 2.267-2.116 3.499-4.722 3.697-7.974l.132-1.938h3.895v1.403ZM78.251 18.25c-.506.4-.572.623-.572 1.782v1.314h-1.21c-1.013 0-1.32.089-1.76.557-.705.69-.705 1.536 0 2.227.44.468.747.557 1.76.557h1.21v1.291c0 1.426.286 1.894 1.342 2.16.418.112.726 0 1.188-.4.507-.423.639-.757.727-1.782l.088-1.27h1.056c1.364 0 2.2-.623 2.2-1.648 0-1.09-.748-1.692-2.134-1.692h-1.122l-.088-1.27c-.088-1.024-.22-1.358-.705-1.782-.726-.623-1.232-.646-1.98-.044ZM4.512 44.51c-.749.289-1.013.801-1.145 2.093l-.132 1.247H2.201c-1.364 0-2.2.624-2.2 1.648 0 1.092.748 1.693 2.134 1.693h1.1l.132 1.27c.11 1.024.264 1.403.705 1.782.704.623 1.21.645 1.936.066.484-.378.594-.668.638-1.737l.066-1.27 1.21-.066c2.047-.112 2.905-1.582 1.65-2.829-.44-.468-.747-.557-1.76-.557h-1.21v-1.292c0-.98-.11-1.403-.374-1.648-.528-.467-1.188-.623-1.716-.4Z" fill="#000"/></svg>