<svg width="114" height="96" fill="none" xmlns="http://www.w3.org/2000/svg"><path d="M39.9.447c-.49.469-.49.513-.49 8.956v8.488l-.69.38c-8.238 4.511-14.25 10.765-18.124 18.851-5.3 11.079-5.344 24.19-.09 35.246 2.183 4.579 4.61 8.019 8.194 11.615C39.165 94.458 53.927 98.389 68.356 94.57c7.703-2.033 15.363-6.969 20.595-13.268 13.515-16.305 12.692-39.69-1.981-55.147-2.516-2.635-6.925-6.008-9.842-7.46l-1.158-.58-.067-1.787c-.11-2.122-.49-2.703-1.759-2.703-1.67 0-1.558-1.608-1.603 21.576l-.066 20.75-5.723.112c-5.12.09-5.766.156-6.123.514-.356.357-.4.982-.467 6.075l-.067 5.695H42.75V3.35h29.836v1.854c0 2.144.29 2.614 1.603 2.614 1.314 0 1.603-.559 1.692-3.172.112-2.636-.044-3.619-.645-4.222C74.835.022 74.344 0 57.6 0 40.591 0 40.39 0 39.9.447Zm-.49 25.552v4.11l-1.224.938c-5.055 3.909-9.24 10.877-10.733 17.868-.556 2.658-.578 9.381 0 11.995.891 4.199 3.162 9.582 4.253 10.073 1.069.492 2.36-.335 2.36-1.474 0-.246-.49-1.474-1.09-2.747-4.231-8.912-3.496-19.008 1.981-27.183 1.336-1.988 3.874-4.959 4.253-4.959.111 0 .2 7.215.2 18.093v18.07l.49.468c.468.447.712.447 11.511.447h11.022l6.702-6.7 6.68-6.702.222-23.742 1.358 1.474c4.877 5.204 7.46 11.681 7.46 18.672 0 5.897-1.381 10.632-4.543 15.39-6.501 9.783-18.48 14.34-29.747 11.324-3.674-.983-7.013-2.68-10.153-5.137-1.47-1.14-2.115-1.251-2.894-.447-1.225 1.206-.602 2.211 2.805 4.534 3.34 2.256 7.259 3.887 11.4 4.758 3.229.692 8.461.692 11.734 0 11.155-2.368 19.75-9.984 23.268-20.638 1.024-3.128 1.47-6.076 1.47-9.65 0-8.063-2.94-15.344-8.506-21.219-1.07-1.094-2.338-2.323-2.85-2.68l-.913-.67v-8.42l1.135.67c2.116 1.206 4.743 3.283 6.88 5.405 5.322 5.271 8.706 11.391 10.376 18.762C97.301 59.927 92.67 74.244 82.472 83.2c-14.206 12.44-34.779 12.642-49.23.491-6.657-5.628-11.244-13.67-12.78-22.47-.646-3.64-.646-9.18 0-12.843A38.04 38.04 0 0 1 37.05 23.185c1.069-.715 2.048-1.296 2.16-1.296.111 0 .2 1.854.2 4.11ZM69.914 59.48c0 .023-1.447 1.497-3.228 3.284l-3.229 3.238v-6.589h3.229c1.78 0 3.228.023 3.228.067ZM.445 5.584C0 6.031 0 6.321 0 19.744c0 13.112.022 13.782.445 15.122.245.782.802 1.921 1.247 2.502.869 1.206 3.095 2.747 4.23 2.97l.758.134v22.85c0 22.76 0 22.827.467 23.43.601.76 1.715.804 2.383.067l.49-.514V63.478c0-21.554.022-22.85.4-22.96 2.56-.85 4.543-2.525 5.567-4.736l.6-1.273.068-14.228c.066-14.05.044-14.25-.401-14.697-.668-.67-1.848-.603-2.427.134-.468.58-.468.804-.468 10.855v10.252l-3.45-.134-.068-10.363c-.044-9.27-.089-10.431-.423-10.789-.512-.58-1.87-.536-2.427.067-.4.447-.423 1.005-.49 10.833l-.066 10.364H3.34V6.098l-.512-.47c-.668-.625-1.782-.647-2.383-.044ZM13.36 31.628c0 .826-.111 1.876-.245 2.345-1.046 3.462-5.655 4.49-8.305 1.854-1.002-1.028-1.313-1.854-1.425-3.842l-.11-1.832H13.36v1.475Zm96.231-25.173c-4.475 3.015-7.659 7.527-9.129 12.977l-.578 2.122-.023 10.163V41.88l.535 1.183c.645 1.452 2.516 3.217 3.963 3.73.668.246 2.026.425 3.696.492l2.605.112v19.387c0 19.253 0 19.365.468 19.968a1.5 1.5 0 0 0 2.404 0l.468-.603V46.146c0-39.981 0-40.026-.445-40.517-.802-.85-1.737-.648-3.964.826Zm1.069 20.46v17.087h-1.937c-2.338 0-3.362-.269-4.319-1.05-1.292-1.095-1.314-1.229-1.314-10.721 0-4.825.111-9.315.222-10.119.668-4.221 2.873-8.353 5.923-11.145.69-.626 1.269-1.14 1.336-1.14.045 0 .089 7.684.089 17.088Z" fill="#000"/><path d="M51.59 9.694c-2.628.982-4.387 3.551-4.387 6.365 0 1.43.668 3.53 1.559 4.937 1.402 2.189 5.232 5.204 7.815 6.164l1.002.38 1.87-.983c3.674-1.92 6.502-4.713 7.593-7.527.735-1.898.712-4.244-.045-5.852-1.135-2.435-2.939-3.663-5.432-3.685-1.337 0-1.737.09-2.85.714l-1.314.715-1.203-.67c-1.447-.826-3.317-1.05-4.608-.558Zm2.827 3.372c.379.18.958.782 1.292 1.34 1.024 1.676 2.427 1.676 3.406-.022 1.069-1.854 3.006-2.144 4.32-.648 1.558 1.787.957 4.535-1.559 7.059-1.224 1.228-4.208 3.149-4.631 2.993-.868-.335-2.85-1.653-4.008-2.703-2.65-2.412-3.407-5.405-1.87-7.26.935-1.116 1.826-1.34 3.05-.759Zm-5.633 23.029c-.601.781-.579 1.273.067 2.032l.534.626 7.548.067c4.142.044 7.86 0 8.26-.067 1.47-.268 2.116-1.832 1.159-2.792-.424-.425-.735-.447-8.773-.447h-8.35l-.445.58Zm0 8.711c-.601.781-.579 1.273.067 2.032l.534.626 7.548.067c4.142.044 7.86 0 8.26-.067 1.47-.268 2.116-1.832 1.159-2.792-.424-.425-.735-.447-8.773-.447h-8.35l-.445.58Z" fill="#000"/></svg>