<svg width="89" height="108" fill="none" xmlns="http://www.w3.org/2000/svg"><path d="M35.12.242c-3.103 1.013-5.269 4.255-4.934 7.43.246 2.476.603 2.95 7.3 9.704 5.515 5.561 6.297 6.259 6.922 6.259s1.406-.698 6.92-6.26c7.123-7.182 7.234-7.34 7.257-10.356 0-1.419-.112-2.027-.514-2.837-.759-1.576-1.942-2.815-3.349-3.513C53.673.151 53.16.04 51.775.04c-2.433 0-3.55.495-5.648 2.567l-1.742 1.688-1.607-1.62C41.795 1.706 40.724.873 40.054.58c-1.362-.608-3.661-.765-4.934-.337Zm3.662 3.715c.446.247 1.719 1.35 2.835 2.476 2.746 2.792 2.79 2.792 5.805-.202 1.25-1.216 2.545-2.342 2.88-2.477 1.005-.383 2.232-.27 3.059.293 1.63 1.103 2.187 2.904 1.428 4.525-.178.383-2.59 2.972-5.358 5.764l-5.023 5.066-4.934-4.953c-2.702-2.725-5.113-5.336-5.359-5.787-1.563-3.017 1.675-6.259 4.666-4.705Zm-13.441 7.43c-.513.563-1.697 3.782-1.697 4.593 0 1.396 1.117 2.161 2.39 1.62.58-.247.803-.607 1.406-2.16.982-2.567 1.05-3.108.446-3.873-.602-.766-1.942-.856-2.545-.18Zm35.566 0c-.715.563-.648 1.486.245 3.917.76 2.072 1.139 2.5 2.3 2.455a1.672 1.672 0 0 0 1.585-1.284c.179-.675-1.072-4.323-1.72-5.02-.58-.609-1.696-.654-2.41-.068Zm-45.188.36a1.733 1.733 0 0 0-.558 1.26c0 .631.312 1.036 1.964 2.725 2.188 2.207 2.769 2.41 3.729 1.419.96-.946.759-1.667-1.027-3.716-.871-.99-1.764-1.913-1.987-2.026a1.752 1.752 0 0 0-2.121.338Zm55.033-.27c-.2.157-1.071 1.058-1.964 2.003-1.273 1.374-1.608 1.87-1.608 2.432 0 .923.871 1.801 1.764 1.801.76 0 1.228-.405 3.237-2.634 1.005-1.148 1.25-1.576 1.25-2.184 0-1.306-1.696-2.206-2.678-1.418Zm-55.346 7.948c-1.786.225-2.433.405-2.79.743-.581.585-.581 1.868-.023 2.499.469.518 1.585.585 4.354.225 1.361-.18 1.763-.315 2.188-.788.267-.338.49-.833.49-1.126 0-.63-.803-1.598-1.45-1.756-.246-.045-1.496.022-2.769.203Zm54.744-.113c-.804.293-1.273 1.216-1.05 2.071.313 1.059 1.295 1.464 4.13 1.644l2.345.158.491-.63c.625-.789.625-1.51-.022-2.252-.424-.496-.76-.63-2.278-.81-.982-.113-2.076-.226-2.455-.294-.358-.045-.893 0-1.161.113Z" fill="#000"/><path d="M22.93 20.663c-.469.27-9.131 14.77-10.07 16.864-.356.81-.914 2.432-1.227 3.602-.469 1.802-.558 2.635-.558 5.291 0 5.089.625 7.183 4.086 13.532 1.228 2.23 2.232 4.188 2.232 4.323 0 .586-7.01 24.97-7.39 25.758-.558 1.103-1.585 1.868-3.215 2.319-2.076.608-3.282 1.328-4.532 2.68-1.16 1.305-1.965 3.016-2.188 4.727-.246 1.712-.469 1.599 11.632 5.089C17.706 106.582 22.796 108 22.997 108c1.317 0 2.366-2.567 2.166-5.359-.157-2.026-.938-3.76-2.479-5.403-1.607-1.689-2.009-2.567-1.987-4.098.023-.856 1.094-4.954 3.573-13.6l3.55-12.36 4.107-2.297c2.255-1.283 4.912-2.95 5.895-3.737 2.188-1.757 4.442-4.571 5.715-7.093l.96-1.891.893 1.734c1.317 2.521 2.233 3.782 4.13 5.718 2.077 2.072 2.746 2.545 7.636 5.292 2.143 1.193 3.93 2.206 3.974 2.251.045.023 1.674 5.651 3.617 12.496 2.411 8.42 3.55 12.789 3.55 13.532 0 1.53-.425 2.409-2.01 4.12-1.719 1.869-2.255 3.085-2.389 5.404-.178 2.949.782 5.291 2.166 5.291.424 0 20.116-5.674 21.567-6.192 1.295-.495 1.585-1.148 1.228-2.657-.893-3.58-3.103-5.853-6.542-6.754-1.428-.383-2.388-.99-3.08-1.959-.268-.383-1.92-5.809-4.109-13.464l-3.616-12.789 1.987-3.602c3.17-5.674 3.929-7.723 4.42-11.843.402-3.535-.178-7.386-1.697-10.988-.736-1.779-9.354-16.391-9.98-16.954-.245-.203-.714-.383-1.049-.383-.312 0-5.09 1.329-10.605 2.927l-10.024 2.905-10.114-2.905c-5.581-1.62-10.359-2.927-10.627-2.927-.29 0-.692.113-.893.248Zm18.865 8.556.827.225v3.67c0 2.026-.067 4.3-.134 5.066l-.157 1.373h-3.594c-3.952 0-7.48-.247-11.074-.788-2.523-.383-9.6-2.071-9.89-2.341-.134-.135 4.51-8.264 6.653-11.64.312-.496.312-.474 8.417 1.846 4.465 1.305 8.484 2.454 8.952 2.589Zm26.256 1.306c1.853 3.152 3.349 5.764 3.304 5.809-.2.18-4.264 1.283-6.608 1.778-4.532.946-8.06 1.284-13.307 1.306l-4.911.023-.067-4.999-.045-5.02.491-.113c.29-.09 4.287-1.239 8.886-2.567 6.117-1.779 8.44-2.364 8.618-2.184.134.135 1.786 2.814 3.639 5.967Zm5.805 11.325c.915 3.58.804 7.07-.335 10.537-.514 1.576-4.8 9.75-5.247 10.042-.111.067-1.362.45-2.746.855l-2.567.744-3.863-2.162c-4.666-2.612-5.693-3.355-7.747-5.561-1.16-1.261-1.83-2.252-2.679-3.986-1.317-2.679-1.786-4.458-1.965-7.137l-.134-1.959 5.336-.135c7.256-.202 13.15-1.08 19.067-2.837 1.674-.495 2.165-.563 2.3-.337.089.18.357 1.035.58 1.936ZM19.29 40.634c5.827 1.621 10.538 2.274 17.727 2.454l5.447.135-.134 1.937c-.335 4.413-1.897 8.128-4.8 11.302-1.853 2.027-2.947 2.815-7.568 5.381l-3.885 2.184-2.746-.788-2.724-.788-2.3-4.21c-1.25-2.341-2.522-4.93-2.813-5.809-1.294-3.873-1.272-8.466.09-12.068.29-.72.067-.743 3.706.27Zm3.349 26.118c1.094.338 1.317.495 1.272.856-.044.225-1.563 5.696-3.393 12.135-1.809 6.44-3.371 12.114-3.438 12.609-.358 2.161.736 4.998 2.634 6.957.692.721 1.407 1.666 1.585 2.117.424.99.447 2.611.067 2.454-.156-.045-4.108-1.194-8.774-2.522-4.666-1.351-8.529-2.477-8.573-2.5-.045-.044.178-.495.513-.99.625-.946 1.63-1.576 3.26-2.026 2.433-.653 4.465-2.252 5.448-4.278.29-.563 2.053-6.462 3.951-13.127 2.59-9.186 3.505-12.09 3.773-12.09.179 0 .938.18 1.675.405Zm49.095 11.37c3.371 11.956 3.885 13.51 4.934 14.883.826 1.103 2.679 2.296 4.242 2.724 1.808.518 3.103 1.306 3.684 2.252.268.45.469.833.424.878-.045.022-3.907 1.148-8.573 2.499a1062.39 1062.39 0 0 0-8.752 2.522c-.402.157-.38-1.531.022-2.5.179-.427.96-1.486 1.764-2.364 1.808-1.959 2.389-3.377 2.389-5.719 0-1.418-.424-3.13-3.371-13.554-1.876-6.552-3.394-12.068-3.416-12.248-.023-.293 2.098-1.08 2.991-1.126.246-.022 1.139 2.837 3.662 11.753Z" fill="#000"/><path d="M67.225 43.899c-.58.608-.625 1.373-.156 2.477.178.45.335 1.283.335 1.846 0 .563-.157 1.396-.335 1.846-.626 1.486-.358 2.522.759 2.995.982.405 1.786-.068 2.478-1.464.491-.99.558-1.396.536-3.377-.022-2.364-.335-3.513-1.206-4.39-.625-.631-1.808-.586-2.411.067ZM65.193 54.03c-.312.158-.893.946-1.317 1.78-.714 1.373-.759 1.553-.491 2.206.491 1.216 2.01 1.553 2.835.608.625-.698 1.63-2.5 1.63-2.927 0-.653-.491-1.464-1.05-1.711-.669-.316-.937-.316-1.607.045ZM34.25 47.321c-.336.315-.559.81-.559 1.17 0 1.397-.469 2.343-1.808 3.67-1.407 1.397-1.518 1.69-.983 2.703.693 1.35 2.077 1.17 3.796-.473 1.406-1.328 2.344-3.265 2.5-5.156.112-1.193.067-1.373-.446-1.891-.76-.766-1.764-.766-2.5-.023Zm-7.636 8.129c-1.496.832-1.853 1.282-1.853 2.228 0 .788.937 1.689 1.719 1.689.915 0 3.371-1.644 3.55-2.364.268-1.081-.692-2.364-1.764-2.364-.156 0-.893.36-1.652.81Z" fill="#000"/></svg>