<svg width="114" height="114" fill="none" xmlns="http://www.w3.org/2000/svg"><path d="M40.42.281c-.943.468-1.863 1.85-2.02 2.985-.112.825-.18.914-.606.758-1.055-.357-3.21-.357-3.928.022-2.132 1.07-2.042 4.611.112 6.015l.606.4-.695.58c-1.639 1.381-2.11 3.475-1.078 4.968l.517.78-1.325 1.091c-1.256 1.025-3.097 2.874-5.341 5.324-.561.624-1.302 1.315-1.639 1.56-.336.245-.763.869-.942 1.381-.247.713-1.526 2.963-2.043 3.587-.022.044-.381-.09-.785-.312-.853-.424-2.828-.49-3.569-.09-.583.312-.516.357-.875-.89-1.077-3.72-4.803-4.21-6.554-.847-.224.468-.426 1.091-.426 1.426 0 .445-.09.557-.381.445-2.222-.846-4.332-.423-5.23 1.047-.853 1.381-.471 3.052 1.055 4.656.786.802.786.802.292 1.07-.853.445-1.796 2.205-1.796 3.319 0 2.094 1.482 3.297 3.793 3.074.696-.067 1.482-.178 1.773-.267.427-.134.494-.09.494.4 0 .87.404 1.76 1.167 2.54 1.481 1.515 3.3 1.448 4.78-.2.719-.78.831-.847.719-.379-.068.29-.202 1.092-.292 1.76-.09.668-.337 1.715-.561 2.294-.247.58-.426 1.315-.426 1.627 0 .824.628 2.027 1.503 2.873l.74.713-.897.914c-1.144 1.225-1.526 2.405-1.167 3.742.202.735.27 7.708.27 27.156v26.175h-6.69c-4.893 0-6.755.067-6.957.268-.337.334-.337 1.136 0 1.47.381.379 33.418.379 33.8 0 .337-.334.337-1.136 0-1.47-.202-.201-1.84-.268-5.948-.268h-5.678v-47.45h.763c1.459 0 3.097-1.626 3.39-3.364.134-.712.224-.868.515-.735 2.492 1.025 4.803.223 5.454-1.893.382-1.27-.022-2.473-1.212-3.676l-.943-.913.764-.669c1.503-1.314 1.952-3.319 1.032-4.722-.875-1.315-2.985-1.805-4.713-1.092-.763.334-.786.312-.786-.178 0-.267-.247-.98-.56-1.604-.472-.936-.966-1.404-2.313-2.228-.112-.067 1.302-4.121 1.774-5.012.336-.668.583-.869 1.413-1.07a20.317 20.317 0 0 1 1.1-.245c.045 0 .157.424.225.914.247 1.827 2.289 3.52 3.882 3.208 1.235-.223 2.492-1.493 2.918-2.94.314-1.092.404-1.204.83-1.07 1.257.379 2.806.379 3.636-.022 2.177-1.025 2.267-4.055.202-5.86l-.74-.668.516-.423c1.1-.846 1.706-2.027 1.706-3.32 0-1.09-.09-1.313-.74-1.96-.831-.824-2.268-1.314-3.233-1.091l-.628.134.56-.468c1.168-1.003 4.647-3.208 6.285-4.032l1.706-.847.27 3.698c.785 10.849 3.68 20.272 9.044 29.384 7.855 13.299 21.254 24.103 35.73 28.804.83.267 1.504.512 1.504.534 0 .045-.404.914-.875 1.96-3.569 7.664-6.083 18.78-6.083 26.956v1.96H69.574c-12.927 0-17.08.067-17.282.268-.336.334-.336 1.136 0 1.47.203.2 7.317.267 30.614.267 27.291 0 30.388-.044 30.703-.356.942-.936.134-1.649-1.908-1.649h-1.549V80.924c0-33.304 0-33.193-1.144-38.316-2.581-11.517-9.808-21.832-20.132-28.715-2.2-1.47-7.384-4.055-9.92-4.946-2.514-.891-6.307-1.804-9.202-2.25-5.41-.802-13.377-.4-18 .936-.337.111-.404-.023-.404-.847 0-1.18-.629-2.25-1.594-2.762-.74-.357-2.962-.357-3.837 0-.292.134-.404.044-.517-.468-.224-1.092-1.055-2.517-1.75-3.007-.853-.602-2.312-.736-3.232-.268Zm2.446 2.34c.561.735.561 1.982.045 3.63-.292.936-.337 1.382-.18 1.65.472.734 1.078.534 2.447-.825 1.549-1.515 2.626-1.894 3.59-1.27.764.49.719 1.27-.111 2.205-.651.736-.876.847-3.524 1.493-.875.223-.965.312-.965.913 0 .758.27.891 2.357 1.315 2.177.445 3.5 2.183 2.446 3.208-.92.913-3.03.089-4.422-1.716-.718-.935-1.324-1.047-1.818-.356-.291.423-.269.601.113 1.715.718 2.072.493 3.698-.606 4.277-.74.401-1.571-.178-1.908-1.336-.224-.758-.202-1.114.112-2.183.629-2.072.651-2.184.247-2.562-.583-.58-.898-.468-2.065.757-1.279 1.337-1.997 1.76-3.075 1.76-.605 0-.897-.134-1.144-.535-.337-.49-.337-.601-.023-1.203.517-1.002 1.347-1.537 2.784-1.826 1.93-.401 2.289-.58 2.289-1.203 0-.69-.314-.914-1.684-1.203-1.66-.357-2.311-.646-2.917-1.292-.651-.69-.718-1.56-.18-2.139.786-.869 2.514-.267 3.95 1.404.988 1.136 1.661 1.358 2.177.757.292-.334.27-.49-.314-2.562-.404-1.403-.292-2.428.36-3.119.583-.623 1.458-.512 2.02.245Zm24.082 5.77c21.434 2.004 38.289 18.244 40.937 39.43.158 1.091.247 6.66.247 13.299v11.428l-2.02 1.002c-1.099.557-2.109 1.003-2.222 1.003-.134 0-.246-4.856-.291-13.077-.09-12.653-.09-13.188-.606-15.527-2.267-10.826-8.327-19.849-17.282-25.797-3.995-2.65-7.788-4.366-12.187-5.502-4.174-1.092-5.566-1.248-10.503-1.248-4.646 0-6.24.156-9.696 1.025-.943.223-1.773.424-1.84.424-.068 0-.135-.357-.135-.803 0-1.046-.539-2.16-1.481-2.962-.629-.557-.696-.69-.404-.936.18-.156.606-.29.942-.312.337-.022 1.886-.312 3.457-.646 4.69-.98 8.618-1.203 13.084-.802Zm1.571 7.172c.09.09-.291 4.678-.404 4.768-.022.022-1.144-.067-2.513-.179-2.29-.2-7.272.023-9.157.424l-.629.111.135-4.834 1.683-.267c1.616-.245 10.638-.268 10.885-.023Zm3.703.87c.562.11 1.392.311 1.863.445l.876.223-.09 3.386-.067 3.363 2.244.914c3.254 1.336 4.758 2.138 7.54 4.01 1.37.913 2.717 1.67 3.008 1.67.472 0 .606-.2.965-1.403.247-.758.517-1.715.606-2.094.068-.401.225-.78.337-.847.09-.066.853.602 1.683 1.493 1.392 1.492 1.482 1.67 1.37 2.406-.741 4.634-.719 13.322.067 18.378 1.302 8.555 4.13 16.708 8.124 23.547.719 1.225.876 1.693.876 2.673v1.181l-3.457 1.782-3.433 1.782-1.325-.423C83.175 75.78 72.29 68.694 65.22 60.563 55.21 49.046 49.869 35.858 49.173 20.954l-.135-3.163 2.177-.69c1.19-.38 2.267-.691 2.38-.691.134 0 .224 1.136.224 2.874 0 3.653.157 3.876 2.356 3.364 2.222-.49 6.71-.691 10.055-.424 2.244.178 3.411.178 3.569.023.112-.112.314-1.404.448-2.852.113-1.47.247-2.785.315-2.94.09-.312.336-.335 1.66-.023Zm-26.37.422c.067.112.022.223-.09.223-.135 0-.248-.111-.248-.223 0-.133.045-.222.09-.222.068 0 .18.089.247.222Zm-7.52.557c0 .669.54 1.783 1.168 2.473.426.468.426.468-1.033 1.537-.785.58-1.503 1.07-1.57 1.092-.046 0-.337-.312-.63-.735-.762-1.092-1.862-1.627-3.141-1.515-.606.044-1.078.067-1.078.044 0-.022.808-.69 1.773-1.47 1.1-.869 2.155-1.515 2.76-1.67 1.55-.402 1.752-.38 1.752.244Zm41.656 1.76c2.401 1.159 5.79 3.275 7.227 4.523l.718.623-.494 1.738-.471 1.715-.584-.379c-2.379-1.559-5.117-3.074-7.07-3.876-1.234-.534-2.356-1.024-2.446-1.114-.291-.245.09-4.433.404-4.433.157 0 1.37.535 2.716 1.203Zm-49.735 3.565c-.112.334-.225.846-.225 1.158 0 .624 0 .601-.785.312l-.606-.223.853-.958c.494-.535.898-.936.942-.936.023.023-.044.312-.18.647Zm4.13-.112c.785.847.875 1.916.336 3.698-.404 1.36-.426 1.715-.202 2.005.516.602 1.167.357 2.402-.891 1.279-1.292 2.401-1.782 3.321-1.448.718.267 1.055.958.808 1.604-.359.936-1.234 1.492-3.052 1.96-1.998.513-2.2.624-2.087 1.337.09.624.291.735 2.311 1.203 1.19.267 1.729.535 2.2 1.025.74.802.808 1.87.18 2.227-1.258.646-3.008-.111-4.355-1.87-.449-.558-.785-.803-1.1-.758-.785.111-.987.69-.628 1.893.696 2.406.426 4.277-.673 4.634-.539.178-1.257-.2-1.594-.802-.359-.668-.291-2.45.112-3.43.494-1.137.45-1.828-.09-2.117-.538-.29-1.099-.045-1.772.802-.943 1.18-2.065 1.871-3.03 1.871-1.1 0-1.482-.29-1.482-1.18 0-1.048 1.19-2.05 2.806-2.384 2.087-.423 2.401-.58 2.312-1.27-.09-.69-.292-.824-2.29-1.27-1.683-.378-2.446-.913-2.805-1.938-.18-.512-.135-.735.18-1.136.852-1.025 2.895-.356 4.286 1.404.876 1.091 1.93 1.225 2.155.29.09-.313.022-.825-.112-1.115-.494-1.07-.696-2.45-.472-3.208.427-1.47 1.549-2.005 2.334-1.136Zm-20.2 5.124c.629.668.786 1.804.427 3.03-.584 2.205-.629 2.606-.18 2.918.247.178.516.312.606.312.112 0 .763-.602 1.481-1.315 1.549-1.604 2.806-2.094 3.748-1.492.786.512.764 1.537-.067 2.361-.584.58-2.514 1.337-3.411 1.337-.517 0-.898.445-.898 1.025 0 .646.224.78 2.132 1.247 1.796.446 2.805 1.314 2.805 2.361 0 .847-.381 1.159-1.458 1.159-1.055 0-1.818-.468-3.12-1.871-.718-.78-1.055-.98-1.436-.892-.696.201-.808.825-.382 2.094.92 2.763-.135 5.236-1.796 4.144-.875-.58-1.1-1.67-.673-3.297.606-2.228.629-2.317.225-2.695-.539-.557-.763-.49-1.796.646-1.324 1.403-2.087 1.87-3.142 1.87-1.077 0-1.459-.311-1.459-1.18 0-1.047 1.19-2.05 2.806-2.384 1.997-.4 2.356-.579 2.356-1.202 0-.691-.314-.892-1.907-1.248-1.616-.334-2.447-.713-2.896-1.381-.92-1.292-.022-2.607 1.594-2.295.628.112 1.19.49 2.154 1.47 1.325 1.337 1.908 1.582 2.402.98.292-.356.27-.556-.292-2.606-.247-.913-.292-1.492-.157-1.982.426-1.448 1.549-1.983 2.334-1.114Zm11.334 3.542c-1.84 1.448-2.065 4.745-.404 5.636.561.29.584.178-.763 4.01-.763 2.16-1.167 3.007-1.773 3.631-.718.735-1.302 2.027-1.302 2.874 0 .312-.09.312-.785.022-.427-.156-1.145-.312-1.594-.312h-.808l.135-.846c.628-3.654.606-3.61 1.414-3.61.965 0 1.885-.467 2.626-1.336.83-1.002.808-2.45-.068-3.831-.359-.58-.875-1.159-1.144-1.293-.471-.245-.449-.267.426-1.158.561-.535 1.01-1.248 1.167-1.827.27-.958.629-1.715 1.46-3.074l.515-.802.786.69.808.714-.696.512Zm70.137 1.76c2.334 3.609 4.376 8.576 5.274 12.943.269 1.247.583 3.698.696 5.458.269 3.987.291 17.532.022 17.532-.202 0-2.401-4.7-3.322-7.129-3.007-7.93-4.623-17.42-4.241-25.173.157-3.096.359-5.124.493-5.124.068 0 .539.669 1.078 1.493ZM25.876 46.038c.606.669.674 2.139.135 3.72-.516 1.56-.449 2.005.381 2.228.472.112.696-.022 1.482-.913 1.19-1.359 2.087-1.916 3.03-1.916.808 0 1.593.513 1.593 1.047 0 1.18-1.526 2.361-3.411 2.651-1.19.178-1.975.646-1.975 1.18 0 .602.381.825 1.907 1.137.741.156 1.639.423 1.976.601.628.312 1.503 1.493 1.503 2.005 0 .49-.875 1.181-1.503 1.181-.831 0-2.29-.913-3.165-1.983-.83-1.024-1.66-1.203-2.065-.468-.18.335-.112.758.224 1.76.562 1.694.562 2.607 0 3.52-.897 1.493-2.693.535-2.693-1.448 0-.4.202-1.314.45-2.05.493-1.47.426-1.937-.36-2.138-.471-.111-.786.09-1.885 1.203-.988 1.003-1.549 1.404-2.155 1.515-1.705.312-2.648-.958-1.66-2.206.65-.802 1.39-1.158 3.097-1.492.942-.2 1.48-.423 1.638-.69.292-.558-.09-1.27-.763-1.404-2.447-.513-3.008-.713-3.569-1.248-1.638-1.648-.471-3.274 1.729-2.45.314.111 1.122.78 1.773 1.448 1.256 1.336 1.728 1.47 2.244.757.292-.423.27-.601-.112-1.715-.561-1.626-.561-2.94.045-3.698.56-.713 1.526-.78 2.11-.134ZM21.388 61.12c.09.468.291 1.114.47 1.448.27.512.315 4.41.315 25.017v24.393h-4.489V60.83h1.19c.673-.022 1.391-.133 1.638-.267.651-.379.696-.334.876.557Zm86.744 32.257v18.624l-4.376-.134-.068-17.42-.044-17.444 2.177-1.091c1.212-.624 2.222-1.114 2.266-1.114.023-.022.045 8.354.045 18.579Zm-6.329 1.604-.067 16.886-6.599.067-6.598.044.135-3.386c.314-8.42 2.603-17.888 6.194-25.618l.875-1.938 2.784-1.426c1.526-.78 2.895-1.448 3.052-1.47.224-.023.269 3.408.224 16.841Z" fill="#000"/><path d="M40.712 9.549c-.517.712-.45 1.225.224 1.87.943.959 2.334.335 2.334-1.024 0-1.247-1.863-1.849-2.558-.846Zm38.131 26.554c-.314.468-.336.935-.112 3.742.584 7.708 2.222 13.612 5.656 20.272 2.558 4.99 5.207 8.6 9.538 12.899 2.85 2.851 3.48 3.32 4.063 2.963.92-.58.606-1.114-2.38-4.032-4.264-4.21-7.091-8.065-9.672-13.166-3.232-6.371-4.781-12.32-5.297-20.317-.09-1.292-.27-2.473-.382-2.628-.359-.424-1.032-.312-1.414.267Zm-4.915 18.289c-.56.557-.449.958.898 3.32 3.59 6.349 8.394 11.85 14.005 16.039 3.164 2.361 4.13 2.896 4.69 2.584.719-.379.606-1.225-.246-1.849-4.265-3.052-5.656-4.21-8.394-6.928-3.48-3.475-5.432-5.948-7.541-9.557-2.447-4.188-2.626-4.366-3.412-3.609ZM32.407 29.82c-.202.268-.359.736-.359 1.003 0 .58.808 1.404 1.37 1.404.605 0 1.548-.87 1.548-1.47 0-1.27-1.863-1.939-2.559-.936ZM12.298 34.9c-.606.601-.561 1.381.067 1.96.651.602 1.37.624 1.953.045.898-.891.247-2.45-1.01-2.45-.314 0-.763.2-1.01.445Zm11.671 18c-.988.78-.382 2.495.875 2.495 1.077 0 1.75-.914 1.369-1.872-.382-1.002-1.414-1.292-2.244-.623ZM13.824 3.311c-1.19 1.849-1.594 4.745-.988 7.084.494 1.871 1.257 3.141 2.873 4.7.786.78 1.302 1.493 1.302 1.783 0 .445-.067.423-.83-.245-1.414-1.248-3.502-2.072-5.477-2.183-3.366-.201-4.152.29-3.434 2.16 1.482 3.899 5.118 6.35 9.292 6.238l1.683-.045.135 1.382c.202 2.094.786 2.272 3.3 1.024 2.558-1.292 4.376-3.653 5.004-6.594.36-1.604.113-3.943-.449-4.5-.404-.4-.47-.423-1.526-.066-1.548.512-3.299 1.76-4.287 3.03-.448.6-.897 1.09-.965 1.09-.09.023-.269-.556-.426-1.291-.247-1.181-.224-1.426.224-2.763.427-1.225.494-1.826.404-3.542-.134-2.784-.92-4.455-2.985-6.393-1.615-1.493-2.311-1.693-2.85-.869Zm3.411 4.99c.494 1.337.607 3.876.225 4.901l-.247.601-.673-.646c-1.594-1.514-2.402-4.7-1.773-6.995l.269-1.002.875.958c.472.535 1.055 1.515 1.324 2.183Zm7.542 9.245c-.068.735-.337 1.782-.562 2.317-.785 1.782-3.68 4.366-3.972 3.586-.202-.512.314-2.717.898-3.854.695-1.336 2.85-3.408 3.59-3.408.113 0 .135.58.046 1.359Zm-11.402-.379c1.28.646 2.626 1.872 3.255 2.985l.404.713H15.91c-1.526 0-3.344-.713-4.578-1.804-.943-.802-1.953-2.139-1.953-2.54 0-.4 2.85.067 3.995.646ZM3.208 47.308c-.247.067-1.032.357-1.75.668-1.661.736-1.84 1.27-.853 2.495 1.436 1.805 3.86 3.23 5.925 3.498.583.09 1.055.178 1.055.2 0 .023-.427.468-.92 1.003-1.1 1.136-2.11 3.186-2.447 4.879-.314 1.648-.292 1.96.202 2.45.36.357.584.379 1.728.2 4.085-.623 7.272-3.787 7.99-7.952.225-1.36.225-1.604-.112-2.117-.202-.311-.381-.712-.381-.868 0-.468-1.684-2.295-2.828-3.075-1.571-1.069-3.255-1.537-5.342-1.514-1.01.022-2.02.066-2.267.133Zm5.611 2.517c.763.357 1.594.892 1.885 1.203l.517.557-.966.245c-1.57.424-4.152.179-5.476-.512-2.424-1.27-2.626-1.715-.897-2.139 1.436-.356 3.433-.111 4.937.646Zm3.344 5.057c-.494 2.273-2.513 4.59-4.646 5.37-1.144.445-1.167.445-1.234.021-.112-.646.92-2.695 1.863-3.72.763-.869 3.187-2.272 3.86-2.272.202 0 .27.178.157.601Zm17.17 8.577c-1.37 2.562-1.033 6.55.785 9.223 1.257 1.826 3.726 3.609 4.624 3.319.628-.2 1.167-1.805 1.279-3.898.135-2.095-.314-3.899-1.414-5.592-1.122-1.782-3.412-3.542-4.556-3.542-.247 0-.584.223-.718.49Zm3.187 3.631c.448.58.987 1.56 1.19 2.161.38 1.18.47 3.653.179 4.143-.27.401-2.2-1.693-2.783-3.007-.494-1.114-.786-3.453-.539-4.41.135-.558.18-.58.65-.268.27.156.854.78 1.303 1.381Zm25.45 39.542c-.336.379-.358.535-.156 1.002l.269.557h7.833c6.823 0 7.9-.044 8.192-.356.449-.423.449-.535 0-1.159l-.337-.49h-7.698c-7.406 0-7.72.023-8.102.446Z" fill="#000"/></svg>