<svg width="111" height="110" fill="none" xmlns="http://www.w3.org/2000/svg"><path d="M36.978.469c-2.13 1.021-3.185 2.975-2.938 5.463.18 1.643.852 3.353 1.861 4.73 1.054 1.4 6.212 5.286 7.041 5.286.852 0 5.943-3.82 7.02-5.264 1.793-2.42 2.399-5.507 1.502-7.573C50.185.158 46.799-.886 44.019.824l-1.077.666-1.098-.666c-1.548-.955-3.297-1.088-4.866-.355Zm2.825 3.264c.224.133.74.822 1.144 1.533 1.233 2.31 2.758 2.31 3.991 0 .987-1.822 1.861-2.2 2.87-1.266.606.555.673 1.465.18 2.865-.493 1.376-1.256 2.243-3.252 3.753l-1.794 1.354-1.412-1.043c-2.893-2.177-3.656-3.198-3.902-5.22-.112-.954-.067-1.176.381-1.643.56-.6 1.121-.688 1.794-.333ZM62.093.469c-2.13 1.021-3.185 2.975-2.938 5.463.18 1.643.852 3.353 1.861 4.73 1.054 1.4 6.212 5.286 7.042 5.286.852 0 5.942-3.82 7.018-5.264 1.794-2.42 2.4-5.507 1.503-7.573C75.3.158 71.915-.886 69.134.824l-1.076.666-1.1-.666c-1.546-.955-3.296-1.088-4.865-.355Zm2.825 3.264c.224.133.74.822 1.144 1.533 1.233 2.31 2.758 2.31 3.991 0 .987-1.822 1.862-2.2 2.87-1.266.606.555.673 1.465.18 2.865-.493 1.376-1.256 2.243-3.251 3.753l-1.794 1.354-1.413-1.043c-2.893-2.177-3.655-3.198-3.902-5.22-.112-.954-.067-1.176.381-1.643.56-.6 1.122-.688 1.794-.333ZM41.597 20.412c-2.556.866-2.556.866-6.167.866-3.88 0-5.045.2-7.04 1.199-3.813 1.932-5.988 6.796-4.867 10.904.426 1.644 1.099 2.798 3.184 5.552 1.861 2.465 2.377 3.665 1.547 3.665-.201 0-.605.244-.896.555-.471.444-.561.733-.561 1.954v1.422l-1.503.266c-4.933.888-7.467 4.042-7.467 9.283v2.132l-1.278 1.155c-.717.644-1.794 1.932-2.422 2.865l-1.099 1.688h-1.524c-1.503 0-1.503 0-2.96 1.221-2.848 2.399-5.584 6.33-6.997 10.083C.292 78.509 0 80.396 0 85.016v4.13l.83 1.688c1.009 2.021 2.31 3.287 4.395 4.242 1.39.644 1.727.71 4.35.777l2.826.09.09 4.485c.067 4.064.111 4.553.582 5.463.785 1.577 1.682 2.532 3.23 3.354l1.412.755h10.988l1.413-.755c1.57-.844 2.242-1.532 3.14-3.22.582-1.111.605-1.266.672-5.641l.09-4.486h42.964l.09 4.486c.067 4.131.112 4.597.583 5.507.785 1.577 1.682 2.532 3.23 3.354l1.412.755h10.988l1.413-.755c1.57-.844 2.242-1.532 3.139-3.22.583-1.111.605-1.266.673-5.597l.09-4.486 2.87-.089c2.758-.088 2.915-.11 4.529-.91 2.041-.977 3.297-2.266 4.283-4.33l.718-1.489v-4.108c0-4.62-.314-6.53-1.547-9.794-1.413-3.753-4.149-7.684-6.997-10.083-1.457-1.221-1.457-1.221-2.982-1.221h-1.525l-.852-1.4c-.47-.755-1.637-2.131-2.601-3.064l-1.772-1.688 1.503-.733c4.35-2.132 9.059-6.13 11.907-10.083 1.48-2.087 1.592-2.442 1.054-3.442-.404-.8-.718-.91-2.467-.91-7.31 0-14.351-3.71-18.477-9.75a31.96 31.96 0 0 0-1.57-2.087c-.336-.4-.74-1.155-.897-1.71-1.121-3.842-4.507-6.818-8.61-7.573-5.472-1-11.213 2.953-12.267 8.439-.83 4.308.807 10.438 3.947 14.813l.964 1.354-1.458.245c-3.318.533-6.346 2.754-7.826 5.64-.426.844-.83 1.888-.92 2.31l-.134.755h-3.655l-.269-1.332c-.359-1.843-1.099-3.242-2.355-4.508-1.278-1.266-2.847-2.021-4.933-2.421l-1.525-.289v-1.399c0-1.221-.067-1.466-.583-1.932l-.583-.533.83-1.31c.449-.711 1.076-2.044 1.39-2.954.516-1.421.583-2.021.606-4.309 0-1.976-.09-3.02-.404-4.041-.403-1.333-.403-1.422-.022-2.332.314-.711.448-1.755.516-3.998.09-3.02.09-3.042-.471-3.598-.763-.755-1.324-.732-4.418.334Zm1.278 4.597c-.134 1.532-.583 2.51-1.704 3.664-1.233 1.288-1.75 1.488-4.059 1.488-1.861 0-2.085.044-2.579.555-.515.511-.56.689-.56 2.887 0 2.288.022 2.377.897 4.109.785 1.554.897 1.954.897 3.331v1.555h-3.588V41.42c0-1.155-.045-1.266-2.332-4.286-2.646-3.487-3.185-4.709-2.983-6.619.224-2.198 1.48-3.997 3.52-5.063.92-.466 1.369-.51 5.495-.644 3.812-.111 4.664-.2 5.718-.578.673-.266 1.278-.488 1.323-.488.045-.022.022.555-.045 1.266Zm33.681.577c1.054.533 2.938 2.177 2.938 2.576 0 .09-.673.222-1.502.289-1.996.2-4.373 1.332-5.651 2.732-.539.555-1.279 1.665-1.66 2.487-.695 1.444-.717 1.599-.83 5.263l-.112 3.776-.717-1.222c-2.288-3.842-3.341-8.95-2.4-11.704.763-2.198 2.332-3.797 4.575-4.597 1.457-.533 3.857-.355 5.36.4Zm3.902 6.663c1.121.4 1.525.777 3.028 2.909 3.991 5.663 10.987 9.971 17.333 10.682.718.089 1.323.222 1.323.333 0 .422-3.318 3.642-5.157 4.997-2.31 1.732-6.122 3.642-8.858 4.42-3.543 1.021-5.695 1.221-12.938 1.221-3.678 0-6.683-.044-6.683-.089 0-.066.292-.555.65-1.066.942-1.399 2.355-4.264 2.893-5.952 1.032-3.087 1.233-4.464 1.368-9.216.157-5.308.27-5.73 1.95-7.196 1.503-1.31 3.297-1.665 5.091-1.043Zm-37.516 1.688c0 2.465-1.255 5.618-2.825 7.128l-.762.733V40.2c0-1.443-.09-1.799-.897-3.375-.494-.978-.897-2.066-.897-2.443 0-.644.022-.667 1.098-.667 1.077 0 2.624-.51 3.499-1.177.605-.466.784-.133.784 1.4ZM41.148 47.35c0 1.8.314 2.066 3.274 2.688 1.368.288 2.803.666 3.162.866 1.3.666 2.534 2.51 2.534 3.842 0 .2-3.005.288-12.714.355-13.096.067-12.76.044-15.473.91-.471.156-.516.09-.516-.688 0-1.31.404-2.443 1.166-3.309.965-1.088 1.66-1.377 4.53-1.977 2.96-.621 3.274-.888 3.274-2.687v-1.199h10.763v1.2Zm26.73 3.198c-.403.889-1.883 3.443-2.377 4.109-.269.333-.605.377-2.354.333l-2.04-.067.537-1.132c1.077-2.288 3.566-3.976 6.01-4.064l.605-.023-.38.844Zm-5.112 8.595c.313 1.266.313 1.266 11.167 1.155 8.543-.067 10.225-.134 12.041-.489l2.108-.422 1.256.666c1.256.645 4.508 3.487 4.26 3.732-.067.066-17.266.11-38.233.088l-38.098-.066 1.12-1.2c1.817-1.954 4.553-3.442 7.064-3.864.314-.044 8.79-.11 18.86-.133l18.32-.022.135.555Zm35.789 28.56.56.533c.538.555.606.555 4.261.555 2.04 0 3.7.044 3.7.111 0 .089-.135.4-.314.733-.471.888-1.458 1.732-2.601 2.243-1.009.444-1.211.466-48.526.466-35.408 0-47.742-.066-48.37-.266-1.345-.378-3.34-2.288-3.34-3.176 0-.067 1.659-.111 3.7-.111 3.654 0 3.722 0 4.26-.555l.56-.533V67.47h86.11v20.232ZM8.858 74.133v3.998H6.615c-1.233 0-2.242-.044-2.242-.111 0-.333 1.255-3.309 1.839-4.33.695-1.244 2.354-3.554 2.533-3.554.068 0 .113 1.799.113 3.998Zm94.989-1.976c.919 1.377 2.242 4.109 2.668 5.463.135.511.112.511-2.108.511h-2.265v-4.02c0-4.597-.044-4.552 1.705-1.954Zm-94.99 13.08h-5.38v-1.42c0-2.221-.112-2.133 2.825-2.133h2.557v3.554Zm98.533-3.197c.067.2.134 1 .134 1.776v1.422h-5.382v-3.554h2.557c2.13 0 2.579.067 2.691.356Zm-77.05 18.055c-.067 4.597-.134 4.797-1.614 5.885-.584.444-.92.467-5.517.467s-4.933-.023-5.516-.467c-1.48-1.088-1.548-1.288-1.615-5.885l-.067-4.197h14.396l-.067 4.197Zm64.582 0c-.067 4.597-.135 4.797-1.615 5.885-.583.444-.92.467-5.516.467-4.597 0-4.933-.023-5.516-.467-1.48-1.088-1.548-1.288-1.615-5.885l-.067-4.197h14.396l-.067 4.197Z" fill="#000"/><path d="M21.415 71.313c-.426.133-1.3.755-1.906 1.377-1.592 1.555-2.04 3.22-1.413 5.308.36 1.221 2.22 3.064 3.454 3.42.672.2 3.969.266 12.064.266h11.122v2.999c0 2.909.023 3.042.561 3.553l.538.555h19.33l.538-.555c.538-.51.56-.644.56-3.553v-2.999h11.168c12.827 0 12.602.023 14.24-1.776.537-.578 1.098-1.466 1.233-1.955.583-1.91.179-3.597-1.234-5.152-1.749-1.932 1.278-1.777-36.26-1.754-23.523.022-33.434.088-33.995.266Zm67.61 3.82c.358.333.56.8.56 1.221 0 .422-.202.889-.56 1.222l-.539.555H22.514l-.538-.555c-.359-.333-.56-.8-.56-1.222 0-.422.201-.888.56-1.221l.538-.555h65.972l.538.555Zm-26.35 10.105h-14.35v-3.554h14.35v3.554Z" fill="#000"/></svg>