<svg width="30" height="40" viewBox="0 0 30 40" fill="none" xmlns="http://www.w3.org/2000/svg">
<path d="M6.21689 0.112903C5.98328 0.253543 3.35968 3.49608 2.65886 4.51181C2.38033 4.91811 2.07484 5.43379 1.96702 5.66819C1.37401 7.05896 1.60762 8.55131 2.6319 9.80144C3.03623 10.2859 3.85385 10.8953 4.39295 11.0985C4.53671 11.161 4.6625 11.2313 4.6625 11.2625C4.6625 11.2938 4.44686 11.6298 4.1863 12.0048C2.96435 13.7628 2.36236 14.9192 2.01194 16.1693C1.18533 19.154 1.78732 22.1934 3.71908 24.7249C5.56998 27.1471 8.34632 28.7722 11.6977 29.3817C12.9017 29.6004 15.0042 29.6239 16.2531 29.4207C22.5784 28.4206 27.044 23.3967 26.4959 17.8961C26.2713 15.6614 25.5255 14.0675 23.2344 10.9266C22.6593 10.1374 22.3808 9.8327 22.1921 9.76238C21.6171 9.55923 20.9701 9.91864 20.9791 10.45C20.9791 10.6765 21.1498 10.9813 21.8057 11.8954C23.8813 14.7629 24.4833 16.0365 24.6989 17.9664C25.0403 21.0917 23.3871 24.2796 20.4311 26.1938C18.5891 27.3893 16.4777 27.9909 14.1416 27.9987C12.3356 28.0065 10.898 27.7096 9.32568 27.022C8.28343 26.5689 7.62753 26.1704 6.79193 25.475C4.41092 23.5139 3.171 20.6776 3.49446 17.9429C3.7101 16.0912 4.33006 14.7473 6.07313 12.3252L6.59426 11.5985L7.19625 11.5438C8.39124 11.4422 9.29872 11.0594 10.2062 10.2702C10.925 9.64518 11.4012 8.90291 11.5899 8.12939C11.7157 7.59027 11.6528 6.32451 11.4641 5.89477L11.3383 5.58224L12.695 3.88675C13.4408 2.95696 14.0697 2.19125 14.0967 2.19125C14.1236 2.19125 14.6448 2.82413 15.2647 3.59765C15.8847 4.37899 16.5046 5.09781 16.6394 5.19939C17.2055 5.61349 18.05 5.27752 18.05 4.62901C18.0411 4.37117 17.8254 4.05864 16.3788 2.26157C15.4624 1.12082 14.6268 0.151969 14.519 0.0972761C14.2674 -0.0277374 13.926 -0.0277374 13.6654 0.0972761C13.5037 0.183223 12.1649 1.78496 10.7094 3.65235L10.3859 4.05864L10.1613 3.76955C8.91237 2.13656 7.21422 0.128529 7.02554 0.0660227C6.71106 -0.0355507 6.44151 -0.019924 6.21689 0.112903ZM7.69042 3.41013C8.93933 4.96499 9.63117 5.97291 9.78391 6.4339C9.95462 6.9652 9.86477 7.92624 9.60421 8.40286C9.32568 8.8951 8.60688 9.52016 8.03185 9.76238C7.6455 9.92646 7.45681 9.95771 6.68411 9.95771C5.88445 9.95771 5.73171 9.93427 5.28246 9.73894C4.72539 9.50454 4.06051 8.93416 3.78198 8.45755C3.33273 7.69966 3.3507 6.71518 3.83588 5.88696C4.21325 5.24627 6.55832 2.18344 6.67512 2.18344C6.69309 2.18344 7.15132 2.73818 7.69042 3.41013Z" fill="black"/>
<path d="M19.0204 6.75424C18.2567 7.12147 18.5622 8.19971 19.4247 8.19971C19.8111 8.19971 20.2514 7.9028 20.3232 7.59808C20.3771 7.35587 20.2154 6.9652 19.9998 6.80893C19.7841 6.65267 19.29 6.62141 19.0204 6.75424Z" fill="black"/>
<path d="M9.51436 13.7081C9.24481 13.7784 8.85846 13.9113 8.66079 14.0206C8.13966 14.2863 7.47478 14.9348 7.19625 15.4505L6.95365 15.8958V21.1308L7.19625 21.5761C7.87012 22.8263 9.4874 23.592 10.9699 23.3654C12.111 23.1935 13.0365 22.5919 13.5845 21.6855L13.8721 21.2089L13.899 18.6618C13.926 15.7786 13.899 15.6224 13.2341 14.8254C12.8747 14.4035 12.0391 13.88 11.5 13.7472C10.916 13.5987 10.0355 13.5831 9.51436 13.7081ZM11.0238 15.2786C11.2035 15.3411 11.4731 15.4896 11.6078 15.6068C12.111 16.0209 12.12 16.0521 12.12 18.4742C12.12 20.9511 12.102 21.037 11.5539 21.4589C10.8531 21.9903 9.78391 21.959 9.1909 21.3886C8.72369 20.9433 8.70572 20.8651 8.70572 18.5133C8.70572 16.5131 8.72369 16.2943 8.87643 16.0287C9.10105 15.6458 9.41552 15.3958 9.8468 15.2708C10.296 15.1223 10.6195 15.1301 11.0238 15.2786Z" fill="black"/>
<path d="M20.3592 14.1535C20.2424 14.255 19.3079 15.7552 18.2837 17.4976C17.2504 19.24 16.2261 20.9667 16.0015 21.3417C15.6061 21.9981 15.5972 22.0371 15.705 22.3419C15.8847 22.8653 16.6394 23.0685 17.0976 22.7091C17.4301 22.4434 21.8237 14.9973 21.8237 14.6848C21.8237 14.0988 20.8354 13.7394 20.3592 14.1535Z" fill="black"/>
<path d="M15.7499 14.802C15.4534 14.9739 15.3276 15.3333 15.3725 15.8333C15.4085 16.2084 15.4624 16.31 15.705 16.4975C16.0194 16.7397 16.316 16.7709 16.6933 16.6069C17.0258 16.4584 17.1516 16.1771 17.1516 15.6146C17.1516 15.1926 17.1246 15.1145 16.891 14.9114C16.5945 14.6535 16.0734 14.5988 15.7499 14.802Z" fill="black"/>
<path d="M20.6377 20.4354C20.2873 20.5995 20.2064 20.7714 20.2064 21.3652C20.2064 21.834 20.2334 21.9043 20.467 22.1153C20.7635 22.3731 21.1409 22.4122 21.5452 22.2325C21.8686 22.084 22.0034 21.8027 22.0034 21.2792C22.0034 20.8886 21.9765 20.8183 21.6979 20.576C21.3565 20.2791 21.042 20.2401 20.6377 20.4354Z" fill="black"/>
<path d="M0.38567 31.3663C-0.000681746 31.6007 -0.0186516 31.7257 0.00830317 35.7339L0.035258 39.5468L0.286836 39.7343C0.628263 39.9922 1.14939 39.9922 1.49082 39.7343L1.74239 39.5468L1.7963 36.3355L4.32107 36.2887L4.58163 36.0308C4.94103 35.687 4.94103 35.3042 4.58163 34.9916L4.32107 34.7651H1.78732V32.8195L4.59062 32.7727L4.85118 32.5148C5.21058 32.171 5.21058 31.7882 4.85118 31.4756L4.59062 31.2491H2.57799C0.960706 31.2491 0.529429 31.2725 0.38567 31.3663Z" fill="black"/>
<path d="M7.62752 31.7022V35.5386C7.62752 39.6484 7.62752 39.6797 8.08576 39.8906C8.49008 40.0703 8.78658 40.0234 9.11902 39.7343L9.42451 39.4687V36.8669L10.8621 38.2967C12.3716 39.789 12.6321 40 13.0365 40C13.3419 40 13.8002 39.664 13.8721 39.3827C13.9619 39.039 13.8181 38.8358 12.6771 37.7185C12.093 37.1403 11.5809 36.6246 11.545 36.5778C11.518 36.5309 11.7426 36.3981 12.0661 36.2652C14.4471 35.2964 14.501 32.5539 12.1469 31.5225C11.6348 31.2881 11.6078 31.2881 9.89173 31.2647L8.16662 31.2334L7.62752 31.7022ZM11.545 33.0227C12.1829 33.4212 12.2637 34.1087 11.7247 34.5775C11.3742 34.8823 10.925 34.9995 10.0804 34.9995H9.42451V32.7961L10.35 32.8274C11.1227 32.843 11.3113 32.8742 11.545 33.0227Z" fill="black"/>
<path d="M16.7382 31.3897C16.3519 31.6632 16.3429 31.71 16.3429 35.5464C16.3429 39.5546 16.3519 39.6406 16.8461 39.8359C16.9898 39.8906 17.7625 39.9219 19.0384 39.9219H21.0151L21.3026 39.6953C21.6979 39.3906 21.7159 38.9296 21.3475 38.617C21.1049 38.3983 21.0959 38.3983 19.6224 38.3748L18.1309 38.3514L18.1848 36.3668L19.5595 36.3277C20.8803 36.2887 20.9522 36.2808 21.1139 36.1011C21.4733 35.7105 21.4194 35.2495 20.9791 34.9682C20.7635 34.8198 20.5748 34.8041 19.4337 34.7807L18.1399 34.7572V32.8117H19.5146C20.7186 32.8117 20.9162 32.7961 21.1768 32.6555C21.5632 32.4523 21.6889 32.1554 21.5632 31.7882C21.3835 31.2725 21.2756 31.2491 18.9755 31.2491C17.1695 31.2491 16.9 31.2647 16.7382 31.3897Z" fill="black"/>
<path d="M25.0403 31.4756L24.7438 31.7022V39.4687L25.0403 39.6953L25.3278 39.9219H27.3135C29.4609 39.9219 29.6855 39.8828 29.8922 39.4921C30.0719 39.1483 30.018 38.9061 29.6945 38.6249L29.389 38.3592H26.4869L26.5408 36.3668L27.9155 36.3277C29.2902 36.2887 29.2992 36.2887 29.5148 36.0699C29.8203 35.7574 29.8023 35.3823 29.4699 35.062L29.2093 34.8041L27.8526 34.7807L26.4959 34.7494V32.8195L29.4789 32.7727L29.7394 32.5148C29.8832 32.3742 30 32.171 30 32.0616C30 31.8038 29.7754 31.4288 29.5597 31.3272C29.4519 31.2803 28.5714 31.2491 27.3584 31.2491H25.3278L25.0403 31.4756Z" fill="black"/>
</svg>
