<svg width="22" height="36" viewBox="0 0 22 36" fill="none" xmlns="http://www.w3.org/2000/svg">
<path d="M4.07026 0.59375C3.9687 0.710938 3.38276 2.57031 2.3437 6.08594C1.47651 9.00781 0.726509 11.5703 0.679634 11.7891C0.515572 12.4922 0.554634 14.0391 0.757759 14.8359C1.10151 16.2109 1.89838 17.5 2.8437 18.2422C4.61713 19.6328 7.27339 20.8672 9.62495 21.3984L10.414 21.5703V32.0938L6.27338 34.6875L6.24995 35.0078C6.20307 35.6016 5.99213 35.5781 10.9999 35.5781C16.0078 35.5781 15.7968 35.6016 15.7499 35.0078L15.7265 34.6797L11.5859 32.0859V21.5703L12.4062 21.3906C14.7109 20.875 17.6484 19.5 19.2656 18.1719C20.914 16.8203 21.789 14.0703 21.3046 11.75C21.2656 11.5547 20.5234 9.00781 19.6562 6.08594C18.6171 2.57812 18.0312 0.710938 17.9296 0.59375L17.7734 0.421875H4.22651L4.07026 0.59375ZM17.2421 1.80469C17.289 1.96875 17.7421 3.5 18.2578 5.21875L19.1874 8.33594L18.6874 8.28125C16.9296 8.10156 14.2499 8.30469 12.6796 8.74219C10.2187 9.42188 9.58589 9.53125 8.38276 9.46094C6.67182 9.35938 5.10151 8.83594 3.64057 7.86719C3.3437 7.67969 3.10932 7.48438 3.10932 7.4375C3.10932 7.39063 3.48432 6.10156 3.93745 4.57031C4.39057 3.03906 4.77338 1.72656 4.79682 1.64844C4.83588 1.52344 5.20307 1.51563 10.9999 1.51563H17.164L17.2421 1.80469ZM3.20307 8.90625C3.78901 9.29688 4.91401 9.82813 5.64838 10.0547C7.8437 10.7422 9.67182 10.7344 12.1093 10.0391C14.0859 9.46094 15.0468 9.32813 16.9765 9.33594C17.7031 9.33594 18.5859 9.38281 18.9218 9.42969L19.539 9.52344L19.8828 10.6875C20.0624 11.3281 20.2499 12.1484 20.2968 12.5C20.4999 14.1328 19.9218 15.9453 18.8515 17.0234C17.539 18.3594 14.3124 19.9063 11.789 20.4219L10.9999 20.5781L10.2109 20.4219C8.26557 20.0234 5.99995 19.0703 4.30463 17.9375C3.22651 17.2109 2.7812 16.7422 2.32807 15.875C1.86713 15 1.68745 14.2344 1.67963 13.1953C1.67963 12.2422 1.74213 11.9141 2.29682 10.0703C2.49213 9.42969 2.66401 8.83594 2.68745 8.75781C2.71088 8.6875 2.74213 8.625 2.75776 8.625C2.77338 8.625 2.9687 8.75 3.20307 8.90625ZM12.1874 33.7578L13.289 34.4453L12.1406 34.4688C11.5156 34.4766 10.4843 34.4766 9.85932 34.4688L8.71089 34.4453L9.79682 33.7656C10.3984 33.3906 10.9296 33.0859 10.9921 33.0781C11.0468 33.0781 11.5859 33.3828 12.1874 33.7578Z" fill="black"/>
<path d="M18.0703 10.8516C17.8437 11.0781 17.8437 11.0234 17.9921 11.7109C18.2968 13.1406 17.9062 14.5938 16.9531 15.6016C16.7031 15.8672 16.4687 16.1484 16.4453 16.2266C16.3671 16.4297 16.5859 16.8047 16.8203 16.8594C17.4531 17.0156 18.6484 15.5078 19.0078 14.1016C19.3124 12.9063 19.1874 11.1953 18.7734 10.8281C18.5078 10.6016 18.3046 10.6094 18.0703 10.8516Z" fill="black"/>
</svg>
