<svg width="114" height="114" viewBox="0 0 114 114" fill="none" xmlns="http://www.w3.org/2000/svg">
<path d="M40.4198 0.281313C39.4772 0.749131 38.557 2.13031 38.3999 3.26644C38.2876 4.09069 38.2203 4.17979 37.7939 4.02386C36.739 3.66742 34.5844 3.66742 33.8662 4.04613C31.7341 5.11543 31.8239 8.65748 33.9785 10.0609L34.5844 10.4619L33.8887 11.0411C32.2503 12.4223 31.779 14.5163 32.8114 16.0089L33.3276 16.7886L32.0034 17.8802C30.7466 18.9049 28.9062 20.7539 26.6618 23.2044C26.1007 23.8281 25.3601 24.5187 25.0234 24.7638C24.6868 25.0088 24.2604 25.6326 24.0808 26.145C23.8339 26.8578 22.5546 29.1078 22.0384 29.7316C22.016 29.7761 21.6569 29.6424 21.2529 29.4197C20.4 28.9964 18.425 28.9296 17.6844 29.3306C17.1008 29.6424 17.1682 29.687 16.8091 28.4395C15.7318 24.7192 12.0061 24.2291 10.2555 27.593C10.0311 28.0608 9.82908 28.6845 9.82908 29.0187C9.82908 29.4642 9.7393 29.5756 9.44753 29.4642C7.22561 28.6177 5.11591 29.041 4.21816 30.5112C3.3653 31.8924 3.74684 33.5632 5.27301 35.1671C6.05854 35.9691 6.05854 35.9691 5.56478 36.2364C4.71192 36.682 3.76929 38.4419 3.76929 39.5557C3.76929 41.6498 5.25057 42.8527 7.56227 42.63C8.25802 42.5631 9.04355 42.4517 9.33532 42.3626C9.76175 42.229 9.82908 42.2735 9.82908 42.7636C9.82908 43.6324 10.2331 44.5235 10.9961 45.3032C12.4774 46.818 14.2954 46.7512 15.7766 45.1027C16.4948 44.323 16.6071 44.2562 16.4948 44.724C16.4275 45.0136 16.2929 45.8156 16.2031 46.4839C16.1133 47.1522 15.8664 48.1992 15.642 48.7784C15.3951 49.3576 15.2156 50.0928 15.2156 50.4046C15.2156 51.2289 15.844 52.4319 16.7193 53.2784L17.4599 53.9912L16.5622 54.9046C15.4176 56.1298 15.036 57.3105 15.3951 58.6471C15.5971 59.3823 15.6644 66.355 15.6644 85.8028V111.978H8.97622C4.0835 111.978 2.22067 112.045 2.01868 112.246C1.68203 112.58 1.68203 113.382 2.01868 113.716C2.40022 114.095 35.4373 114.095 35.8188 113.716C36.1555 113.382 36.1555 112.58 35.8188 112.246C35.6169 112.045 33.9785 111.978 29.8713 111.978H24.193V64.5283H24.9561C26.4149 64.5283 28.0533 62.9021 28.3451 61.1644C28.4798 60.4516 28.5695 60.2956 28.8613 60.4293C31.3526 61.4541 33.6642 60.6521 34.3151 58.5358C34.6967 57.266 34.2927 56.063 33.1032 54.86L32.1605 53.9467L32.9236 53.2784C34.4273 51.964 34.8762 49.9591 33.956 48.5556C33.0807 47.2413 30.971 46.7512 29.2428 47.4641C28.4798 47.7982 28.4573 47.776 28.4573 47.2859C28.4573 47.0185 28.2104 46.3057 27.8962 45.6819C27.4249 44.7463 26.9312 44.2785 25.5845 43.4542C25.4723 43.3874 26.8863 39.333 27.3576 38.4419C27.6942 37.7736 27.9411 37.5731 28.7715 37.3726C29.3326 37.2389 29.8264 37.1275 29.8713 37.1275C29.9162 37.1275 30.0284 37.5508 30.0957 38.0409C30.3426 39.8676 32.385 41.5607 33.9785 41.2488C35.2129 41.026 36.4697 39.7562 36.8961 38.3082C37.2104 37.2166 37.3001 37.1053 37.7266 37.2389C38.9834 37.6176 40.532 37.6176 41.3624 37.2166C43.5395 36.1919 43.6292 33.1622 41.5644 31.3578L40.8238 30.6895L41.34 30.2662C42.4397 29.4197 43.0457 28.239 43.0457 26.9469C43.0457 25.8553 42.9559 25.6326 42.3051 24.9865C41.4746 24.1623 40.0382 23.6722 39.0732 23.895L38.4448 24.0286L39.0058 23.5608C40.1729 22.5583 43.6517 20.3529 45.2901 19.5287L46.9958 18.6821L47.2651 22.3801C48.0506 33.229 50.9459 42.6522 56.3099 51.7635C64.1652 65.0629 77.5641 75.8673 92.0402 80.5677C92.8706 80.8351 93.544 81.0801 93.544 81.1024C93.544 81.1469 93.14 82.0158 92.6687 83.0628C89.1001 90.7261 86.5864 101.842 86.5864 110.018V111.978H69.5741C56.6466 111.978 52.4945 112.045 52.2925 112.246C51.9558 112.58 51.9558 113.382 52.2925 113.716C52.4945 113.916 59.6091 113.983 82.9057 113.983C110.197 113.983 113.294 113.939 113.609 113.627C114.551 112.691 113.743 111.978 111.701 111.978H110.152V80.9242C110.152 47.62 110.152 47.7314 109.008 42.6077C106.427 31.0905 99.1998 20.7762 88.8757 13.8926C86.6762 12.4223 81.4917 9.83816 78.9556 8.94708C76.4419 8.056 72.6489 7.14264 69.7537 6.6971C64.3447 5.89513 56.3772 6.29611 51.7538 7.63273C51.4172 7.74412 51.3499 7.61046 51.3499 6.78621C51.3499 5.60552 50.7214 4.53623 49.7564 4.02386C49.0157 3.66742 46.7938 3.66742 45.9185 4.02386C45.6267 4.15752 45.5145 4.06841 45.4023 3.55604C45.1779 2.46446 44.3474 1.03873 43.6517 0.548638C42.7988 -0.0528421 41.34 -0.186504 40.4198 0.281313ZM42.8662 2.6204C43.4272 3.35554 43.4272 4.60306 42.911 6.25156C42.6193 7.18719 42.5744 7.63273 42.7315 7.90006C43.2028 8.6352 43.8088 8.43471 45.1778 7.07581C46.7265 5.56097 47.8038 5.18226 48.7688 5.80602C49.5319 6.29611 49.487 7.07581 48.6566 8.01144C48.0058 8.74659 47.7813 8.85797 45.133 9.50401C44.2577 9.72678 44.1679 9.81588 44.1679 10.4174C44.1679 11.1748 44.4372 11.3084 46.5245 11.7317C48.7015 12.1772 50.0257 13.9149 48.9708 14.9396C48.0506 15.853 45.9409 15.0287 44.5494 13.2243C43.8312 12.2886 43.2253 12.1772 42.7315 12.8678C42.4397 13.2911 42.4622 13.4693 42.8437 14.5832C43.5619 16.6549 43.3375 18.2812 42.2377 18.8604C41.4971 19.2613 40.6667 18.6821 40.33 17.5237C40.1056 16.7663 40.128 16.4099 40.4422 15.3406C41.0707 13.2688 41.0931 13.1574 40.6891 12.7787C40.1056 12.1995 39.7914 12.3109 38.6243 13.5361C37.345 14.8728 36.6268 15.296 35.5495 15.296C34.9435 15.296 34.6518 15.1624 34.4049 14.7614C34.0682 14.2713 34.0682 14.1599 34.3824 13.5584C34.8987 12.556 35.7291 12.0213 37.1655 11.7317C39.0956 11.3307 39.4547 11.1525 39.4547 10.5287C39.4547 9.83816 39.1405 9.61539 37.7714 9.32579C36.1106 8.96936 35.4597 8.67976 34.8538 8.03372C34.2029 7.34313 34.1356 6.47433 34.6742 5.89513C35.4597 5.02632 37.1879 5.6278 38.6243 7.29858C39.6118 8.43471 40.2851 8.65748 40.8013 8.056C41.0931 7.72184 41.0707 7.5659 40.4871 5.49414C40.0831 4.09069 40.1954 3.06594 40.8462 2.37535C41.4298 1.7516 42.3051 1.86298 42.8662 2.6204ZM66.9482 8.39015C88.3819 10.3951 105.237 26.635 107.885 47.8205C108.043 48.9121 108.132 54.4813 108.132 61.1199V72.548L106.112 73.5505C105.013 74.1074 104.003 74.5529 103.89 74.5529C103.756 74.5529 103.644 69.6965 103.599 61.4763C103.509 48.823 103.509 48.2883 102.993 45.9492C100.726 35.1226 94.6661 26.1004 85.7111 20.1524C81.7161 17.5015 77.9232 15.7861 73.5242 14.65C69.3497 13.5584 67.9582 13.4025 63.0206 13.4025C58.3747 13.4025 56.7812 13.5584 53.3249 14.4272C52.3823 14.65 51.5519 14.8505 51.4845 14.8505C51.4172 14.8505 51.3499 14.4941 51.3499 14.0485C51.3499 13.0015 50.8112 11.8876 49.8686 11.0857C49.2402 10.5287 49.1728 10.3951 49.4646 10.15C49.6441 9.9941 50.0706 9.86044 50.4072 9.83816C50.7439 9.81588 52.2925 9.52628 53.8636 9.19213C58.5543 8.21194 62.4819 7.98917 66.9482 8.39015ZM68.5193 15.5634C68.609 15.6525 68.2275 20.2415 68.1153 20.3306C68.0928 20.3529 66.9706 20.2638 65.6016 20.1524C63.3123 19.9519 58.3298 20.1747 56.4446 20.5757L55.8162 20.6871L55.9508 15.853L57.6341 15.5856C59.25 15.3406 68.2724 15.3183 68.5193 15.5634ZM72.2225 16.4322C72.7836 16.5435 73.614 16.744 74.0853 16.8777L74.9606 17.1005L74.8708 20.4866L74.8035 23.8504L77.0479 24.7638C80.3022 26.1004 81.8059 26.9024 84.5889 28.7736C85.958 29.687 87.3046 30.4444 87.5964 30.4444C88.0677 30.4444 88.2024 30.2439 88.5615 29.041C88.8083 28.2835 89.0777 27.3256 89.1674 26.9469C89.2348 26.5459 89.3919 26.1672 89.5041 26.1004C89.5939 26.0336 90.357 26.7019 91.1874 27.593C92.5789 29.0855 92.6686 29.2637 92.5564 29.9989C91.8158 34.6325 91.8382 43.3205 92.6238 48.3774C93.9255 56.9318 96.7534 65.0852 100.748 71.9243C101.467 73.1495 101.624 73.6173 101.624 74.5975V75.7782L98.1674 77.5603L94.7335 79.3425L93.4093 78.9193C83.175 75.7782 72.2898 68.6941 65.22 60.563C55.2102 49.0457 49.8686 35.8577 49.1728 20.9544L49.0382 17.7911L51.2152 17.1005C52.4047 16.7218 53.482 16.4099 53.5942 16.4099C53.7289 16.4099 53.8187 17.546 53.8187 19.2836C53.8187 22.9371 53.9758 23.1598 56.1752 22.6475C58.3972 22.1574 62.8859 21.9569 66.23 22.2242C68.4744 22.4024 69.6414 22.4024 69.7986 22.2465C69.9108 22.1351 70.1128 20.843 70.2474 19.395C70.3596 17.9247 70.4943 16.6104 70.5616 16.4544C70.6514 16.1426 70.8983 16.1203 72.2225 16.4322ZM45.8512 16.8554C45.9185 16.9668 45.8736 17.0782 45.7614 17.0782C45.6267 17.0782 45.5145 16.9668 45.5145 16.8554C45.5145 16.7218 45.5594 16.6327 45.6043 16.6327C45.6716 16.6327 45.7838 16.7218 45.8512 16.8554ZM38.3325 17.4124C38.3325 18.0807 38.8712 19.1945 39.4996 19.8851C39.926 20.3529 39.926 20.3529 38.4672 21.4222C37.6817 22.0014 36.9635 22.4915 36.8961 22.5138C36.8512 22.5138 36.5595 22.2019 36.2677 21.7787C35.5046 20.6871 34.4049 20.1524 33.1256 20.2638C32.5196 20.3084 32.0483 20.3306 32.0483 20.3084C32.0483 20.2861 32.8563 19.6178 33.8214 18.8381C34.9211 17.9693 35.9759 17.3232 36.5819 17.1673C38.1305 16.7663 38.3325 16.7886 38.3325 17.4124ZM79.988 19.1722C82.3895 20.3306 85.7784 22.447 87.2148 23.6945L87.933 24.3182L87.4393 26.0558L86.968 27.7712L86.3844 27.3925C84.0054 25.8331 81.2673 24.3182 79.3147 23.5163C78.0803 22.9816 76.9581 22.4915 76.8683 22.4024C76.5765 22.1574 76.9581 17.9693 77.2723 17.9693C77.4294 17.9693 78.6414 18.5039 79.988 19.1722ZM30.2528 22.7366C30.1406 23.0707 30.0284 23.5831 30.0284 23.895C30.0284 24.5187 30.0284 24.4964 29.2428 24.2068L28.6369 23.9841L29.4897 23.0262C29.9835 22.4915 30.3875 22.0905 30.4324 22.0905C30.4548 22.1128 30.3875 22.4024 30.2528 22.7366ZM34.3824 22.6252C35.168 23.4717 35.2578 24.541 34.7191 26.3232C34.3151 27.6821 34.2927 28.0385 34.5171 28.3281C35.0333 28.9296 35.6842 28.6845 36.9186 27.437C38.1979 26.145 39.3201 25.6549 40.2402 25.989C40.9584 26.2563 41.2951 26.9469 41.0482 27.593C40.6891 28.5286 39.8138 29.0855 37.9959 29.5533C35.9984 30.0657 35.7964 30.1771 35.9086 30.89C35.9984 31.5137 36.2004 31.6251 38.2203 32.0929C39.4098 32.3602 39.9485 32.6276 40.4198 33.1177C41.1604 33.9196 41.2278 34.9889 40.5993 35.3454C39.3425 35.9914 37.5919 35.234 36.2453 33.4741C35.7964 32.9172 35.4597 32.6721 35.1455 32.7167C34.36 32.8281 34.158 33.4073 34.5171 34.6102C35.2129 37.0161 34.9435 38.8874 33.8438 39.2438C33.3052 39.4221 32.587 39.0434 32.2503 38.4419C31.8912 37.7736 31.9585 35.9914 32.3625 35.0112C32.8563 33.8751 32.8114 33.1845 32.2727 32.8949C31.7341 32.6053 31.173 32.8503 30.4997 33.6969C29.5571 34.8775 28.4349 35.5681 27.4698 35.5681C26.3701 35.5681 25.9885 35.2785 25.9885 34.3875C25.9885 33.3404 27.178 32.338 28.794 32.0038C30.8812 31.5805 31.1954 31.4246 31.1057 30.734C31.0159 30.0434 30.8139 29.9098 28.8164 29.4642C27.1331 29.0855 26.3701 28.5509 26.011 27.5261C25.8314 27.0138 25.8763 26.791 26.1905 26.39C27.0434 25.3653 29.0857 26.0336 30.4772 27.7935C31.3526 28.885 32.4074 29.0187 32.6318 28.0831C32.7216 27.7712 32.6543 27.2588 32.5196 26.9692C32.0259 25.8999 31.8239 24.5187 32.0483 23.7613C32.4747 22.291 33.5969 21.7564 34.3824 22.6252ZM14.1831 27.7489C14.8116 28.4172 14.9687 29.5533 14.6096 30.7786C14.026 32.984 13.9812 33.385 14.43 33.6969C14.6769 33.8751 14.9462 34.0087 15.036 34.0087C15.1482 34.0087 15.7991 33.4073 16.5173 32.6944C18.0659 31.0905 19.3227 30.6004 20.2654 31.2018C21.0509 31.7142 21.0285 32.739 20.1981 33.5632C19.6145 34.1424 17.6844 34.8998 16.7866 34.8998C16.2704 34.8998 15.8889 35.3454 15.8889 35.9246C15.8889 36.5706 16.1133 36.7043 18.021 37.1721C19.8165 37.6176 20.8265 38.4864 20.8265 39.5334C20.8265 40.38 20.4449 40.6919 19.3676 40.6919C18.3128 40.6919 17.5497 40.224 16.248 38.8206C15.5298 38.0409 15.1931 37.8404 14.8116 37.9295C14.1158 38.13 14.0036 38.7537 14.43 40.0235C15.3502 42.7859 14.2954 45.2586 12.6345 44.1671C11.7592 43.5879 11.5348 42.4963 11.9612 40.8701C12.5672 38.6424 12.5896 38.5533 12.1857 38.1745C11.647 37.6176 11.4226 37.6845 10.3902 38.8206C9.06599 40.224 8.30291 40.6919 7.24805 40.6919C6.17076 40.6919 5.78922 40.38 5.78922 39.5112C5.78922 38.4641 6.97873 37.4617 8.59468 37.1275C10.5922 36.7265 10.9513 36.5483 10.9513 35.9246C10.9513 35.234 10.637 35.0335 9.04355 34.6771C7.4276 34.3429 6.59719 33.9642 6.14832 33.2959C5.22813 32.0038 6.12587 30.6895 7.74182 31.0013C8.37024 31.1127 8.93133 31.4914 9.89641 32.4716C11.2206 33.8083 11.8041 34.0533 12.2979 33.4518C12.5896 33.0954 12.5672 32.8949 12.0061 30.8454C11.7592 29.932 11.7143 29.3528 11.849 28.8627C12.2754 27.4147 13.3976 26.8801 14.1831 27.7489ZM25.5172 31.2909C23.6768 32.739 23.4524 36.036 25.1132 36.927C25.6743 37.2166 25.6968 37.1053 24.3501 40.9369C23.587 43.0978 23.1831 43.9443 22.5771 44.5681C21.8589 45.3032 21.2753 46.5953 21.2753 47.4418C21.2753 47.7537 21.1856 47.7537 20.4898 47.4641C20.0634 47.3081 19.3452 47.1522 18.8963 47.1522H18.0883L18.223 46.3057C18.8514 42.6522 18.829 42.6968 19.637 42.6968C20.602 42.6968 21.5222 42.229 22.2629 41.3602C23.0933 40.3577 23.0708 38.9097 22.1955 37.5285C21.8364 36.9493 21.3202 36.3701 21.0509 36.2364C20.5796 35.9914 20.602 35.9691 21.4773 35.078C22.0384 34.5434 22.4873 33.8305 22.6444 33.2513C22.9137 32.2934 23.2728 31.536 24.1032 30.1771L24.6195 29.3751L25.405 30.0657L26.213 30.7786L25.5172 31.2909ZM95.6537 33.0508C97.9878 36.6597 100.03 41.6275 100.928 45.9938C101.197 47.2413 101.511 49.6918 101.624 51.4517C101.893 55.4393 101.915 68.9837 101.646 68.9837C101.444 68.9837 99.2446 64.2832 98.3245 61.855C95.317 53.9244 93.7011 44.4344 94.0826 36.682C94.2397 33.5855 94.4417 31.5583 94.5764 31.5583C94.6437 31.5583 95.115 32.2266 95.6537 33.0508ZM25.8763 46.0383C26.4823 46.7067 26.5496 48.1769 26.011 49.7586C25.4948 51.318 25.5621 51.7635 26.3925 51.9863C26.8638 52.0977 27.0883 51.964 27.8738 51.073C29.0633 49.7141 29.961 49.1571 30.9037 49.1571C31.7117 49.1571 32.4972 49.6695 32.4972 50.2041C32.4972 51.3848 30.971 52.5655 29.0857 52.8551C27.8962 53.0333 27.1107 53.5011 27.1107 54.0358C27.1107 54.6373 27.4922 54.86 29.0184 55.1719C29.7591 55.3279 30.6568 55.5952 30.9935 55.7734C31.6219 56.0853 32.4972 57.266 32.4972 57.7783C32.4972 58.2684 31.6219 58.959 30.9935 58.959C30.163 58.959 28.7042 58.0457 27.8289 56.9764C26.9985 55.9516 26.1681 55.7734 25.7641 56.5085C25.5845 56.8427 25.6519 57.266 25.9885 58.2684C26.5496 59.9615 26.5496 60.8748 25.9885 61.7882C25.0908 63.2808 23.2953 62.3229 23.2953 60.3402C23.2953 59.9392 23.4973 59.0259 23.7442 58.2907C24.2379 56.8204 24.1706 56.3526 23.3851 56.1521C22.9137 56.0407 22.5995 56.2412 21.4998 57.3551C20.5123 58.3575 19.9512 58.7585 19.3452 58.8699C17.6395 59.1818 16.6968 57.912 17.6844 56.6645C18.3352 55.8625 19.0759 55.5061 20.7816 55.1719C21.7242 54.9714 22.2629 54.7487 22.42 54.4813C22.7117 53.9244 22.3302 53.2115 21.6569 53.0779C19.2105 52.5655 18.6494 52.365 18.0883 51.8304C16.45 50.1819 17.617 48.5556 19.8165 49.3799C20.1307 49.4913 20.9387 50.1596 21.5896 50.8279C22.8464 52.1645 23.3177 52.2982 23.8339 51.5853C24.1257 51.1621 24.1032 50.9838 23.7217 49.87C23.1606 48.2438 23.1606 46.9294 23.7666 46.172C24.3277 45.4591 25.2928 45.3923 25.8763 46.0383ZM21.3876 61.1199C21.4773 61.5877 21.6793 62.2337 21.8589 62.5679C22.1282 63.0803 22.1731 66.9788 22.1731 87.585V111.978H17.6844V60.8303H18.8739C19.5472 60.808 20.2654 60.6966 20.5123 60.563C21.1631 60.1843 21.208 60.2288 21.3876 61.1199ZM108.132 93.377V112.001L103.756 111.867L103.688 94.4463L103.644 77.0034L105.821 75.9118C107.033 75.2881 108.043 74.798 108.087 74.798C108.11 74.7757 108.132 83.1519 108.132 93.377ZM101.803 94.981L101.736 111.867L95.1375 111.934L88.539 111.978L88.6737 108.592C88.9879 100.172 91.2771 90.7038 94.8681 82.9737L95.7434 81.0356L98.5265 79.6098C100.053 78.8301 101.422 78.1618 101.579 78.1395C101.803 78.1173 101.848 81.5479 101.803 94.981Z" fill="black"/>
<path d="M40.7116 9.54855C40.1954 10.2614 40.2627 10.7738 40.936 11.4198C41.8786 12.3777 43.2701 11.754 43.2701 10.3951C43.2701 9.14756 41.4073 8.54609 40.7116 9.54855Z" fill="black"/>
<path d="M78.8434 36.1028C78.5291 36.5706 78.5067 37.0384 78.7311 39.8453C79.3147 47.5532 80.953 53.4566 84.3869 60.1174C86.9455 65.1075 89.5939 68.7164 93.9255 73.0158C96.7758 75.8673 97.4043 76.3351 97.9878 75.9787C98.908 75.3995 98.5938 74.8648 95.6088 71.9465C91.3445 67.7362 88.5166 63.8822 85.9355 58.7808C82.7037 52.4096 81.155 46.4616 80.6388 38.4641C80.5491 37.1721 80.3695 35.9914 80.2573 35.8355C79.8982 35.4122 79.2249 35.5236 78.8434 36.1028Z" fill="black"/>
<path d="M73.9282 54.3922C73.3671 54.9492 73.4793 55.3501 74.8259 57.7115C78.4169 64.0605 83.2199 69.5629 88.8308 73.751C91.9953 76.1123 92.9604 76.647 93.5215 76.3351C94.2397 75.9564 94.1275 75.1099 93.2746 74.4861C89.0103 71.4342 87.6188 70.2758 84.8807 67.558C81.4019 64.0827 79.4493 61.61 77.3396 58.0011C74.8933 53.813 74.7137 53.6348 73.9282 54.3922Z" fill="black"/>
<path d="M32.4074 29.8207C32.2054 30.088 32.0483 30.5558 32.0483 30.8231C32.0483 31.4023 32.8563 32.2266 33.4174 32.2266C34.0233 32.2266 34.966 31.3578 34.966 30.7563C34.966 29.4865 33.1032 28.8182 32.4074 29.8207Z" fill="black"/>
<path d="M12.2979 34.8998C11.6919 35.5013 11.7368 36.281 12.3652 36.8602C13.0161 37.4617 13.7343 37.484 14.3178 36.9048C15.2156 36.0137 14.5647 34.4543 13.3078 34.4543C12.9936 34.4543 12.5448 34.6548 12.2979 34.8998Z" fill="black"/>
<path d="M23.9686 52.8997C22.9811 53.6794 23.587 55.3947 24.8439 55.3947C25.9212 55.3947 26.5945 54.4813 26.213 53.5234C25.8314 52.521 24.799 52.2314 23.9686 52.8997Z" fill="black"/>
<path d="M13.824 3.31098C12.6345 5.15998 12.2305 8.05599 12.8365 10.3951C13.3303 12.2664 14.0934 13.5361 15.7093 15.0955C16.4948 15.8752 17.0111 16.5881 17.0111 16.8777C17.0111 17.3232 16.9437 17.301 16.1806 16.6327C14.7667 15.3851 12.6794 14.5609 10.7044 14.4495C7.33783 14.249 6.5523 14.7391 7.2705 16.6104C8.75178 20.5089 12.3877 22.9593 16.5622 22.8479L18.2455 22.8034L18.3801 24.1846C18.5821 26.2786 19.1656 26.4568 21.6793 25.2093C24.2379 23.9172 26.0558 21.5559 26.6843 18.6153C27.0434 17.0114 26.7965 14.6723 26.2354 14.1153C25.8314 13.7144 25.7641 13.6921 24.7092 14.0485C23.1606 14.5609 21.41 15.8084 20.4225 17.0782C19.9736 17.6797 19.5247 18.1698 19.4574 18.1698C19.3676 18.192 19.1881 17.6128 19.031 16.8777C18.7841 15.697 18.8065 15.452 19.2554 14.1153C19.6818 12.8901 19.7492 12.2886 19.6594 10.5733C19.5247 7.78867 18.7392 6.11789 16.6744 4.17979C15.0585 2.68723 14.3627 2.48673 13.824 3.31098ZM17.2355 8.30104C17.7292 9.63766 17.8415 12.1772 17.4599 13.202L17.213 13.8035L16.5397 13.1574C14.9462 11.6426 14.1383 8.45698 14.7667 6.16244L15.036 5.15998L15.9113 6.11789C16.3826 6.65254 16.9662 7.63273 17.2355 8.30104ZM24.7766 17.546C24.7092 18.2812 24.4399 19.3282 24.2155 19.8628C23.4299 21.645 20.5347 24.2291 20.2429 23.4494C20.0409 22.937 20.5571 20.7316 21.1407 19.5955C21.8364 18.2589 23.991 16.1871 24.7317 16.1871C24.8439 16.1871 24.8663 16.7663 24.7766 17.546ZM13.3752 17.1673C14.6545 17.8133 16.0011 19.0386 16.6295 20.1524L17.0335 20.8653H15.9113C14.3851 20.8653 12.5672 20.1524 11.3328 19.0608C10.3902 18.2589 9.3802 16.9223 9.3802 16.5213C9.3802 16.1203 12.2305 16.5881 13.3752 17.1673Z" fill="black"/>
<path d="M3.2082 47.3081C2.96131 47.375 2.17579 47.6646 1.45759 47.9764C-0.203242 48.7116 -0.382792 49.2462 0.60473 50.4715C2.04112 52.2759 4.46504 53.7016 6.52986 53.969C7.11339 54.0581 7.58471 54.1472 7.58471 54.1695C7.58471 54.1917 7.15828 54.6373 6.66452 55.1719C5.56478 56.3081 4.55482 58.3575 4.21816 60.0506C3.90395 61.6991 3.92639 62.011 4.42015 62.5011C4.77925 62.8575 5.00369 62.8798 6.14832 62.7016C10.2331 62.0778 13.4201 58.9145 14.1383 54.7487C14.3627 53.3898 14.3627 53.1447 14.026 52.6323C13.824 52.3205 13.6445 51.9195 13.6445 51.7635C13.6445 51.2957 11.9612 49.469 10.8166 48.6893C9.24554 47.62 7.56227 47.1522 5.47501 47.1745C4.46504 47.1967 3.45508 47.2413 3.2082 47.3081ZM8.81911 49.8254C9.5822 50.1819 10.4126 50.7165 10.7044 51.0284L11.2206 51.5853L10.2555 51.8304C8.68445 52.2536 6.10343 52.0086 4.77925 51.318C2.35534 50.0482 2.15334 49.6027 3.88151 49.1794C5.3179 48.823 7.31539 49.068 8.81911 49.8254ZM12.1632 54.8823C11.6695 57.1546 9.64953 59.4714 7.51738 60.2511C6.37275 60.6966 6.35031 60.6966 6.28298 60.2734C6.17076 59.6273 7.20317 57.5778 8.1458 56.5531C8.90889 55.6843 11.3328 54.2808 12.0061 54.2808C12.2081 54.2808 12.2754 54.4591 12.1632 54.8823Z" fill="black"/>
<path d="M29.3326 63.459C27.9636 66.0208 28.3002 70.0084 30.1181 72.6817C31.375 74.5084 33.8438 76.2906 34.7415 76.0009C35.37 75.8005 35.9086 74.1965 36.0208 72.1025C36.1555 70.0084 35.7066 68.204 34.6069 66.5109C33.4847 64.7288 31.1954 62.9689 30.0508 62.9689C29.8039 62.9689 29.4673 63.1917 29.3326 63.459ZM32.5196 67.0901C32.9685 67.6693 33.5071 68.6495 33.7091 69.251C34.0907 70.4317 34.1805 72.9044 33.8887 73.3945C33.6194 73.7955 31.6892 71.7015 31.1057 70.3871C30.6119 69.2733 30.3201 66.9342 30.567 65.9763C30.7017 65.4194 30.7466 65.3971 31.2179 65.709C31.4872 65.8649 32.0708 66.4887 32.5196 67.0901Z" fill="black"/>
<path d="M57.9707 106.632C57.6341 107.011 57.6116 107.167 57.8136 107.634L58.083 108.191H65.9158C72.7387 108.191 73.816 108.147 74.1077 107.835C74.5566 107.412 74.5566 107.3 74.1077 106.676L73.7711 106.186H66.0729C58.6665 106.186 58.3523 106.209 57.9707 106.632Z" fill="black"/>
</svg>
