<svg width="40" height="40" viewBox="0 0 40 40" fill="none" xmlns="http://www.w3.org/2000/svg">
<path d="M27.9313 0.109374C27.6177 0.234374 27.3379 0.515622 27.2193 0.804683C27.1599 0.937494 27.126 1.64843 27.126 2.51561C27.126 4.11716 27.1854 4.37497 27.6007 4.67966L27.8042 4.8281V7.49996C27.8042 10.1484 27.8042 10.1718 27.6262 10.2109C27.2023 10.3203 26.041 10.8984 25.4645 11.2968C24.0743 12.2577 23.1588 13.539 22.5993 15.2733C22.4298 15.8124 22.4298 15.9687 22.3959 27.0702C22.379 35.8201 22.3959 38.3982 22.4807 38.6716C22.6163 39.1326 23.2945 39.7732 23.7861 39.906C24.0489 39.9763 25.9053 39.9998 31.2119 39.9998C39.2565 39.9998 38.7987 40.031 39.4429 39.3748C39.6633 39.1482 39.8583 38.8513 39.9177 38.656C39.9939 38.406 40.0109 35.5779 39.9939 27.1092C39.9685 16.7343 39.9516 15.8593 39.8159 15.3905C39.1293 13.0468 37.5611 11.3359 35.2299 10.3906L34.5857 10.1249V4.86716L34.8824 4.5781C35.0434 4.42185 35.196 4.17966 35.2215 4.03904C35.2554 3.89841 35.2638 3.11717 35.2469 2.29686L35.2215 0.804683L34.9756 0.515622C34.5603 0.00781244 34.5094 0 31.178 0C28.8723 0.00781245 28.1263 0.0312498 27.9313 0.109374ZM33.9075 3.74998H28.4823V1.24999H33.9075V3.74998ZM33.2294 6.24996H29.1605V4.99997H33.2294V6.24996ZM33.2294 9.17182C33.2294 11.1406 33.1955 11.0624 34.2042 11.3671C36.2472 11.9843 37.7899 13.4843 38.4511 15.5077C38.5953 15.9452 38.6122 16.6405 38.6292 27.1717L38.6546 38.3591L38.4511 38.5545L38.2392 38.7498H24.1506L23.9472 38.5545L23.7353 38.367V27.4998C23.7353 19.9843 23.7607 16.4608 23.8285 16.0702C24.193 13.8515 26.0494 11.9218 28.4145 11.2968C29.1605 11.1015 29.1605 11.1015 29.1605 9.16401V7.49996H33.2294V9.17182Z" fill="black"/>
<path d="M30.3472 12.625C28.7197 13.1719 28.0331 14.7891 28.8299 16.1797C29.1351 16.7031 29.4063 16.9453 30.0421 17.25C30.4066 17.4219 30.5846 17.4531 31.1949 17.4609C31.8646 17.4609 31.9579 17.4375 32.4665 17.1797C34.4246 16.1875 34.3483 13.6172 32.3393 12.7422C31.7883 12.5 30.8813 12.4453 30.3472 12.625ZM31.729 13.8594C32.6106 14.1953 32.814 15.2266 32.1274 15.8594C31.5679 16.375 30.805 16.3828 30.254 15.8672C29.2029 14.9063 30.3642 13.3281 31.729 13.8594Z" fill="black"/>
<path d="M25.9817 19.5703C25.8461 19.6875 25.7698 19.8516 25.7698 20C25.7698 20.1484 25.8461 20.3125 25.9817 20.4297L26.1852 20.625H36.2048L36.4083 20.4297C36.5439 20.3125 36.6202 20.1484 36.6202 20C36.6202 19.8516 36.5439 19.6875 36.4083 19.5703L36.2048 19.375H26.1852L25.9817 19.5703Z" fill="black"/>
<path d="M28.0162 22.0703C27.8805 22.1875 27.8042 22.3516 27.8042 22.5C27.8042 22.6484 27.8805 22.8125 28.0162 22.9297L28.2196 23.125H34.1704L34.3738 22.9297C34.5095 22.8125 34.5858 22.6484 34.5858 22.5C34.5858 22.3516 34.5095 22.1875 34.3738 22.0703L34.1704 21.875H28.2196L28.0162 22.0703Z" fill="black"/>
<path d="M4.95898 13.9452C4.84031 14.0468 4.74706 14.1952 4.74706 14.2734C4.74706 14.3515 4.95898 15.7655 5.21329 17.4218C5.4676 19.078 5.73038 20.953 5.80667 21.6014C5.92535 22.703 6.10336 25.3045 6.10336 25.953V26.2499H0.415368L0.211922 26.4452C0.0932458 26.5467 0 26.6952 0 26.7733C0 26.8514 0.211922 28.2655 0.466229 29.9217C1.11047 34.0936 1.3563 36.5389 1.3563 38.7732C1.3563 39.5623 1.37326 39.6248 1.56823 39.8045L1.77167 39.9998H9.07875L9.27372 39.8201C9.46021 39.6482 9.46869 39.5701 9.52803 37.9685C9.55346 37.0467 9.62127 35.867 9.66366 35.3514C9.79081 33.9217 10.1045 31.5623 10.1723 31.5623C10.3333 31.5623 10.7402 35.6482 10.825 37.992C10.8759 39.5701 10.8843 39.6482 11.0708 39.8201L11.2658 39.9998H18.5729L18.7763 39.8045C18.9713 39.6326 18.9882 39.5623 18.9882 38.8045C18.9882 36.5389 19.251 33.9295 19.9207 29.6326C20.1581 28.1483 20.3445 26.8592 20.3445 26.7811C20.3445 26.703 20.2513 26.5467 20.1326 26.4452L19.9292 26.2499H14.2412V25.9139C14.2497 25.1952 14.4192 22.7108 14.5379 21.6014C14.6142 20.953 14.8769 19.078 15.1313 17.4218C15.3856 15.7655 15.5975 14.3515 15.5975 14.2734C15.5975 14.1952 15.5042 14.0468 15.3856 13.9452L15.1821 13.7499H5.16243L4.95898 13.9452ZM14.114 15.2109C14.0886 15.3359 13.8936 16.539 13.6817 17.8905C13.3935 19.789 13.2579 20.4452 13.0968 20.7577C12.8086 21.3436 12.1983 21.9061 11.5371 22.2108C11.0284 22.4374 10.9098 22.4608 10.1723 22.4608C9.43478 22.4608 9.31611 22.4374 8.80749 22.2108C8.46842 22.0546 8.08696 21.7968 7.8496 21.5624C7.16298 20.8905 7.07821 20.6327 6.65436 17.8827C6.45092 16.5312 6.25595 15.3359 6.23899 15.2109L6.19661 14.9999H14.1564L14.114 15.2109ZM8.43451 23.4139C9.78234 23.9374 11.4099 23.8046 12.6221 23.0702L13.0798 22.7968L13.029 23.2499C12.9951 23.5077 12.9527 24.2811 12.9188 24.9764L12.8594 26.2499H7.4851L7.42576 25.0155C7.39185 24.3436 7.34947 23.5624 7.31556 23.2889L7.2647 22.7889L7.63768 23.0233C7.84113 23.1483 8.20563 23.328 8.43451 23.4139ZM9.36697 27.7108C9.34154 27.8358 9.14657 29.0389 8.93465 30.3905C8.64643 32.2889 8.5108 32.9451 8.34974 33.2576C8.06153 33.8436 7.45119 34.4061 6.78999 34.7107C6.28138 34.9373 6.1627 34.9607 5.42521 34.9607C4.68772 34.9607 4.56905 34.9373 4.06043 34.7107C3.72136 34.5545 3.3399 34.2967 3.10254 34.0623C2.41592 33.3904 2.33115 33.1326 1.9073 30.3826C1.70386 29.0311 1.50889 27.8358 1.49193 27.7108L1.44955 27.4998H9.40935L9.36697 27.7108ZM18.8611 27.7108C18.8357 27.8358 18.6407 29.0389 18.4288 30.3905C18.1406 32.2889 18.0049 32.9451 17.8439 33.2576C17.5556 33.8436 16.9453 34.4061 16.2841 34.7107C15.7755 34.9373 15.6568 34.9607 14.9193 34.9607C14.1818 34.9607 14.0632 34.9373 13.5546 34.7107C13.2155 34.5545 12.834 34.2967 12.5967 34.0623C11.91 33.3904 11.8253 33.1326 11.4014 30.3826C11.198 29.0311 11.003 27.8358 10.9861 27.7108L10.9437 27.4998H18.9035L18.8611 27.7108ZM3.68745 35.9139C5.03528 36.4373 6.66284 36.3045 7.87503 35.5701L8.33279 35.2967L8.28193 35.7498C8.24802 36.0076 8.20563 36.781 8.17173 37.4763L8.11239 38.7498H2.73804L2.6787 37.5232C2.64479 36.8435 2.60241 36.0623 2.5685 35.7889L2.51764 35.2889L2.89062 35.5232C3.09407 35.6482 3.45857 35.8279 3.68745 35.9139ZM13.1816 35.9139C14.5294 36.4373 16.157 36.3045 17.3692 35.5701L17.8269 35.2967L17.776 35.7498C17.7421 36.0076 17.6998 36.781 17.6658 37.4763L17.6065 38.7498H12.2322L12.1728 37.5232C12.1389 36.8435 12.0965 36.0623 12.0626 35.7889L12.0118 35.2889L12.3847 35.5232C12.5882 35.6482 12.9527 35.8279 13.1816 35.9139Z" fill="black"/>
</svg>
